<?xml version="1.0" encoding="utf-8" standalone="no"?>
<!DOCTYPE svg PUBLIC "-//W3C//DTD SVG 1.1//EN"
  "http://www.w3.org/Graphics/SVG/1.1/DTD/svg11.dtd">
<svg xmlns:xlink="http://www.w3.org/1999/xlink" width="792pt" height="158.4pt" viewBox="0 0 792 158.4" xmlns="http://www.w3.org/2000/svg" version="1.1">
 <metadata>
  <rdf:RDF xmlns:dc="http://purl.org/dc/elements/1.1/" xmlns:cc="http://creativecommons.org/ns#" xmlns:rdf="http://www.w3.org/1999/02/22-rdf-syntax-ns#">
   <cc:Work>
    <dc:type rdf:resource="http://purl.org/dc/dcmitype/StillImage"/>
    <dc:date>2024-01-03T10:17:00.827444</dc:date>
    <dc:format>image/svg+xml</dc:format>
    <dc:creator>
     <cc:Agent>
      <dc:title>Matplotlib v3.5.0, https://matplotlib.org/</dc:title>
     </cc:Agent>
    </dc:creator>
   </cc:Work>
  </rdf:RDF>
 </metadata>
 <defs>
  <style type="text/css">*{stroke-linejoin: round; stroke-linecap: butt}</style>
 </defs>
 <g id="figure_1">
  <g id="patch_1">
   <path d="M 0 158.4 
L 792 158.4 
L 792 0 
L 0 0 
z
" style="fill: #ffffff"/>
  </g>
  <g id="axes_1">
   <g id="patch_2">
    <path d="M 144.105007 110.68 
L 647.894993 110.68 
L 647.894993 10.8 
L 144.105007 10.8 
z
" style="fill: #ffffff"/>
   </g>
   <g id="LineCollection_1">
    <path d="M 144.105007 22.580935 
L 793 22.580935 
" clip-path="url(#pa3c04df5e4)" style="fill: none; stroke: #000000; stroke-width: 1.5"/>
   </g>
   <g id="LineCollection_2">
    <path d="M 144.105007 46.142805 
L 609.141917 46.142805 
" clip-path="url(#pa3c04df5e4)" style="fill: none; stroke: #000000; stroke-width: 1.5"/>
   </g>
   <g id="LineCollection_3">
    <path d="M 787.406066 46.142805 
L 793 46.142805 
" clip-path="url(#pa3c04df5e4)" style="fill: none; stroke: #000000; stroke-width: 1.5"/>
   </g>
   <g id="LineCollection_4">
    <path d="M 609.141917 57.92374 
L 764.15422 57.92374 
" clip-path="url(#pa3c04df5e4)" style="fill: none; stroke: #000000; stroke-width: 1.5"/>
   </g>
   <g id="line2d_1">
    <path d="M 764.15422 57.92374 
L 764.389087 57.920775 
L 764.623955 57.911881 
L 764.858822 57.897068 
L 765.093689 57.87635 
L 765.328556 57.849749 
L 765.563423 57.817292 
L 765.79829 57.77901 
L 766.033157 57.734943 
L 766.268024 57.685135 
L 766.502892 57.629636 
L 766.737759 57.568502 
L 766.972626 57.501794 
L 767.207493 57.42958 
L 767.44236 57.351932 
L 767.677227 57.268929 
L 767.912094 57.180654 
L 768.146961 57.087196 
L 768.381829 56.988649 
L 768.616696 56.885113 
L 768.851563 56.776691 
L 769.08643 56.663493 
L 769.321297 56.545633 
L 769.556164 56.423229 
L 769.791031 56.296405 
L 770.025898 56.165288 
L 770.260766 56.03001 
L 770.495633 55.890709 
L 770.7305 55.747523 
L 770.965367 55.600597 
L 771.200234 55.450079 
L 771.435101 55.296121 
L 771.669968 55.138877 
L 771.904835 54.978506 
L 772.139703 54.81517 
L 772.37457 54.649033 
L 772.609437 54.480261 
L 772.844304 54.309026 
L 773.079171 54.135499 
L 773.314038 53.959856 
L 773.548905 53.782272 
L 773.783772 53.602928 
L 774.01864 53.422003 
L 774.253507 53.23968 
L 774.488374 53.056142 
L 774.723241 52.871574 
L 774.958108 52.686161 
L 775.192975 52.500092 
L 775.427842 52.313552 
L 775.662709 52.126731 
L 775.897577 51.939815 
L 776.132444 51.752993 
L 776.367311 51.566453 
L 776.602178 51.380384 
L 776.837045 51.194972 
L 777.071912 51.010404 
L 777.306779 50.826866 
L 777.541646 50.644542 
L 777.776514 50.463617 
L 778.011381 50.284273 
L 778.246248 50.106689 
L 778.481115 49.931046 
L 778.715982 49.757519 
L 778.950849 49.586284 
L 779.185716 49.417513 
L 779.420583 49.251375 
L 779.655451 49.088039 
L 779.890318 48.927668 
L 780.125185 48.770425 
L 780.360052 48.616466 
L 780.594919 48.465948 
L 780.829786 48.319023 
L 781.064653 48.175837 
L 781.29952 48.036535 
L 781.534388 47.901258 
L 781.769255 47.770141 
L 782.004122 47.643317 
L 782.238989 47.520913 
L 782.473856 47.403052 
L 782.708723 47.289854 
L 782.94359 47.181433 
L 783.178457 47.077896 
L 783.413325 46.979349 
L 783.648192 46.885891 
L 783.883059 46.797616 
L 784.117926 46.714613 
L 784.352793 46.636966 
L 784.58766 46.564752 
L 784.822527 46.498044 
L 785.057394 46.43691 
L 785.292262 46.38141 
L 785.527129 46.331602 
L 785.761996 46.287535 
L 785.996863 46.249254 
L 786.23173 46.216796 
L 786.466597 46.190195 
L 786.701464 46.169478 
L 786.936332 46.154665 
L 787.171199 46.145771 
L 787.406066 46.142805 
" clip-path="url(#pa3c04df5e4)" style="fill: none; stroke: #000000; stroke-width: 1.5; stroke-linecap: square"/>
   </g>
   <g id="line2d_2">
    <path d="M 447.109939 78.411403 
L 453.65547 78.306162 
L 460.200534 77.990447 
L 466.744659 77.46428 
L 473.287379 76.727699 
L 479.828224 75.780757 
L 486.366727 74.623521 
L 492.902418 73.256075 
L 499.43483 71.678517 
L 505.963495 69.890959 
L 512.487946 67.893529 
L 519.007715 65.68637 
L 525.522336 63.269641 
L 536.955973 58.91884 
L 543.501874 56.702835 
L 550.052474 54.697399 
L 556.607307 52.902676 
L 563.165901 51.318795 
L 569.727787 49.945868 
L 576.292496 48.783994 
L 582.859557 47.833257 
L 589.4285 47.093724 
L 595.998855 46.565448 
L 602.570151 46.248468 
L 609.141917 46.142805 
L 609.141917 46.142805 
" clip-path="url(#pa3c04df5e4)" style="fill: none; stroke: #000000; stroke-width: 1.5; stroke-linecap: square"/>
   </g>
   <g id="line2d_3">
    <path d="M 447.109939 90.192338 
L 453.681705 90.086675 
L 460.253001 89.769694 
L 466.823356 89.241419 
L 473.392299 88.501886 
L 479.95936 87.551148 
L 486.524068 86.389275 
L 493.085955 85.016348 
L 499.644549 83.432466 
L 506.199381 81.637744 
L 512.749982 79.632308 
L 519.295882 77.416303 
L 525.836614 74.989888 
L 537.244141 70.648773 
L 543.76391 68.441614 
L 550.28836 66.444184 
L 556.817026 64.656626 
L 563.349438 63.079067 
L 569.885129 61.711621 
L 576.423631 60.554386 
L 582.964476 59.607444 
L 589.507196 58.870863 
L 596.051322 58.344696 
L 602.596385 58.028981 
L 609.141917 57.92374 
L 609.141917 57.92374 
" clip-path="url(#pa3c04df5e4)" style="fill: none; stroke: #000000; stroke-width: 1.5; stroke-linecap: square"/>
   </g>
   <g id="LineCollection_5">
    <path d="M 221.611159 78.411403 
L 447.109939 78.411403 
" clip-path="url(#pa3c04df5e4)" style="fill: none; stroke: #000000; stroke-width: 1.5"/>
    <path d="M 221.611159 90.192338 
L 447.109939 90.192338 
" clip-path="url(#pa3c04df5e4)" style="fill: none; stroke: #000000; stroke-width: 1.5"/>
   </g>
   <g id="line2d_4">
    <path d="M 144.105007 34.36187 
L 793 34.36187 
" clip-path="url(#pa3c04df5e4)" style="fill: none; stroke-dasharray: 10,10; stroke-dashoffset: 0; stroke: #808080"/>
   </g>
   <g id="line2d_5">
    <path d="M 616.892532 46.142805 
L 775.780143 46.142805 
" clip-path="url(#pa3c04df5e4)" style="fill: none; stroke-dasharray: 10,10; stroke-dashoffset: 0; stroke: #808080"/>
   </g>
   <g id="PolyCollection_1">
    <defs>
     <path id="mccb5e6ff3a" d="M 221.611159 -135.819065 
L 221.611159 -112.257195 
L 609.141917 -112.257195 
L 609.141917 -135.819065 
L 609.141917 -135.819065 
L 221.611159 -135.819065 
z
" style="stroke: #ffffff; stroke-opacity: 0.1"/>
    </defs>
    <g clip-path="url(#pa3c04df5e4)">
     <use xlink:href="#mccb5e6ff3a" x="0" y="158.4" style="fill: #808080; fill-opacity: 0.1; stroke: #ffffff; stroke-opacity: 0.1"/>
    </g>
   </g>
   <g id="PolyCollection_2">
    <defs>
     <path id="md0f1a509c4" d="M 144.105007 -135.819065 
L 144.105007 -124.03813 
L 221.611159 -124.03813 
L 221.611159 -135.819065 
L 221.611159 -135.819065 
L 144.105007 -135.819065 
z
" style="stroke: #ffffff; stroke-opacity: 0.1"/>
    </defs>
    <g clip-path="url(#pa3c04df5e4)">
     <use xlink:href="#md0f1a509c4" x="0" y="158.4" style="fill: #808080; fill-opacity: 0.1; stroke: #ffffff; stroke-opacity: 0.1"/>
    </g>
   </g>
   <g id="PolyCollection_3">
    <defs>
     <path id="m55c47d7c92" d="M 144.105007 -124.03813 
L 144.105007 -112.257195 
L 221.611159 -112.257195 
L 221.611159 -124.03813 
L 221.611159 -124.03813 
L 144.105007 -124.03813 
z
" style="stroke: #ffffff; stroke-opacity: 0.05"/>
    </defs>
    <g clip-path="url(#pa3c04df5e4)">
     <use xlink:href="#m55c47d7c92" x="0" y="158.4" style="fill: #808080; fill-opacity: 0.05; stroke: #ffffff; stroke-opacity: 0.05"/>
    </g>
   </g>
   <g id="PolyCollection_4">
    <defs>
     <path id="mcef4a74e7d" d="M 221.611159 -79.988597 
L 221.611159 -68.207662 
L 447.109939 -68.207662 
L 447.931419 -68.209313 
L 448.752899 -68.214266 
L 449.574376 -68.222521 
L 450.395851 -68.234078 
L 451.217322 -68.248937 
L 452.038789 -68.267098 
L 452.86025 -68.288561 
L 453.681705 -68.313325 
L 454.503152 -68.341392 
L 455.324591 -68.37276 
L 456.146021 -68.40743 
L 456.967441 -68.445402 
L 457.78885 -68.486675 
L 458.610247 -68.53125 
L 459.431631 -68.579127 
L 460.253001 -68.630306 
L 461.074356 -68.684786 
L 461.895696 -68.742567 
L 462.717019 -68.80365 
L 463.538325 -68.868034 
L 464.359613 -68.935719 
L 465.180881 -69.006705 
L 466.002129 -69.080993 
L 466.823356 -69.158581 
L 467.64456 -69.239471 
L 468.465742 -69.323661 
L 469.2869 -69.411152 
L 470.108033 -69.501944 
L 470.92914 -69.596036 
L 471.750221 -69.693428 
L 472.571274 -69.794121 
L 473.392299 -69.898114 
L 474.213294 -70.005408 
L 475.034259 -70.116001 
L 475.855192 -70.229894 
L 476.676094 -70.347086 
L 477.496962 -70.467579 
L 478.317797 -70.59137 
L 479.138596 -70.718461 
L 479.95936 -70.848852 
L 480.780087 -70.982541 
L 481.600776 -71.119529 
L 482.421426 -71.259816 
L 483.242037 -71.403401 
L 484.062608 -71.550285 
L 484.883137 -71.700467 
L 485.703625 -71.853947 
L 486.524068 -72.010725 
L 487.344468 -72.170801 
L 488.164823 -72.334174 
L 488.985132 -72.500845 
L 489.805394 -72.670813 
L 490.625608 -72.844078 
L 491.445774 -73.020639 
L 492.265889 -73.200497 
L 493.085955 -73.383652 
L 493.905969 -73.570103 
L 494.72593 -73.75985 
L 495.545839 -73.952892 
L 496.365693 -74.14923 
L 497.185492 -74.348864 
L 498.005235 -74.551792 
L 498.824921 -74.758016 
L 499.644549 -74.967534 
L 500.464118 -75.180346 
L 501.283628 -75.396453 
L 502.103077 -75.615853 
L 502.922465 -75.838548 
L 503.74179 -76.064535 
L 504.561051 -76.293816 
L 505.380249 -76.52639 
L 506.199381 -76.762256 
L 507.018447 -77.001415 
L 507.837446 -77.243866 
L 508.656377 -77.489609 
L 509.47524 -77.738644 
L 510.294032 -77.99097 
L 511.112754 -78.246586 
L 511.931404 -78.505494 
L 512.749982 -78.767692 
L 513.568486 -79.03318 
L 514.386916 -79.301958 
L 515.205271 -79.574026 
L 516.023549 -79.849383 
L 516.84175 -80.128029 
L 517.659874 -80.409963 
L 518.477918 -80.695186 
L 519.295882 -80.983697 
L 520.113766 -81.275496 
L 520.931568 -81.570581 
L 521.749288 -81.868954 
L 522.566923 -82.170614 
L 523.384475 -82.47556 
L 524.201941 -82.783792 
L 525.019321 -83.095309 
L 525.836614 -83.410112 
L 526.653818 -83.7282 
L 527.470934 -84.049573 
L 528.28796 -84.37423 
L 528.28796 -84.37423 
L 529.101724 -84.69759 
L 529.915578 -85.01768 
L 530.72952 -85.334498 
L 531.54355 -85.648044 
L 532.357667 -85.958319 
L 533.17187 -86.26532 
L 533.986158 -86.569049 
L 534.800529 -86.869504 
L 535.614984 -87.166686 
L 536.429522 -87.460594 
L 537.244141 -87.751227 
L 538.05884 -88.038586 
L 538.873618 -88.322671 
L 539.688476 -88.60348 
L 540.503411 -88.881013 
L 541.318423 -89.155271 
L 542.13351 -89.426252 
L 542.948673 -89.693958 
L 543.76391 -89.958386 
L 544.57922 -90.219537 
L 545.394602 -90.477411 
L 546.210055 -90.732008 
L 547.025579 -90.983326 
L 547.841172 -91.231367 
L 548.656834 -91.476128 
L 549.472564 -91.717612 
L 550.28836 -91.955816 
L 551.104223 -92.190741 
L 551.92015 -92.422386 
L 552.736141 -92.650752 
L 553.552195 -92.875837 
L 554.368312 -93.097643 
L 555.18449 -93.316167 
L 556.000728 -93.531411 
L 556.817026 -93.743374 
L 557.633382 -93.952056 
L 558.449796 -94.157456 
L 559.266266 -94.359574 
L 560.082793 -94.558411 
L 560.899374 -94.753965 
L 561.716009 -94.946237 
L 562.532697 -95.135226 
L 563.349438 -95.320933 
L 564.166229 -95.503356 
L 564.983071 -95.682496 
L 565.799963 -95.858353 
L 566.616903 -96.030926 
L 567.43389 -96.200216 
L 568.250924 -96.366221 
L 569.068004 -96.528942 
L 569.885129 -96.688379 
L 570.702298 -96.844531 
L 571.519509 -96.997398 
L 572.336763 -97.146981 
L 573.154058 -97.293278 
L 573.971393 -97.43629 
L 574.788768 -97.576017 
L 575.606181 -97.712459 
L 576.423631 -97.845614 
L 577.241118 -97.975484 
L 578.058641 -98.102068 
L 578.876199 -98.225365 
L 579.69379 -98.345376 
L 580.511415 -98.462101 
L 581.329071 -98.57554 
L 582.146759 -98.685691 
L 582.964476 -98.792556 
L 583.782224 -98.896134 
L 584.599999 -98.996425 
L 585.417802 -99.093429 
L 586.235631 -99.187145 
L 587.053486 -99.277575 
L 587.871366 -99.364716 
L 588.68927 -99.44857 
L 589.507196 -99.529137 
L 590.325145 -99.606416 
L 591.143114 -99.680407 
L 591.961104 -99.75111 
L 592.779113 -99.818525 
L 593.59714 -99.882652 
L 594.415184 -99.943491 
L 595.233245 -100.001041 
L 596.051322 -100.055304 
L 596.869413 -100.106278 
L 597.687518 -100.153964 
L 598.505636 -100.198361 
L 599.323766 -100.23947 
L 600.141906 -100.27729 
L 600.960057 -100.311821 
L 601.778217 -100.343065 
L 602.596385 -100.371019 
L 603.414561 -100.395685 
L 604.232742 -100.417062 
L 605.05093 -100.43515 
L 605.869122 -100.449949 
L 606.687317 -100.46146 
L 607.505516 -100.469682 
L 608.323716 -100.474615 
L 609.141917 -100.47626 
L 609.141917 -112.257195 
L 609.141917 -112.257195 
L 608.323716 -112.25555 
L 607.505516 -112.25063 
L 606.687317 -112.242435 
L 605.869122 -112.230964 
L 605.05093 -112.216217 
L 604.232742 -112.198194 
L 603.414561 -112.176896 
L 602.596385 -112.152323 
L 601.778217 -112.124474 
L 600.960057 -112.09335 
L 600.141906 -112.05895 
L 599.323766 -112.021275 
L 598.505636 -111.980324 
L 597.687518 -111.936098 
L 596.869413 -111.888597 
L 596.051322 -111.837821 
L 595.233245 -111.783769 
L 594.415184 -111.726443 
L 593.59714 -111.665841 
L 592.779113 -111.601965 
L 591.961104 -111.534813 
L 591.143114 -111.464387 
L 590.325145 -111.390686 
L 589.507196 -111.313711 
L 588.68927 -111.233461 
L 587.871366 -111.149937 
L 587.053486 -111.063138 
L 586.235631 -110.973065 
L 585.417802 -110.879718 
L 584.599999 -110.783096 
L 583.782224 -110.683201 
L 582.964476 -110.580032 
L 582.146759 -110.47359 
L 581.329071 -110.363873 
L 580.511415 -110.250884 
L 579.69379 -110.134621 
L 578.876199 -110.015085 
L 578.058641 -109.892275 
L 577.241118 -109.766193 
L 576.423631 -109.636838 
L 575.606181 -109.504211 
L 574.788768 -109.368311 
L 573.971393 -109.229139 
L 573.154058 -109.086694 
L 572.336763 -108.940978 
L 571.519509 -108.791989 
L 570.702298 -108.63973 
L 569.885129 -108.484198 
L 569.068004 -108.325396 
L 568.250924 -108.163322 
L 567.43389 -107.997977 
L 566.616903 -107.829362 
L 565.799963 -107.657476 
L 564.983071 -107.482319 
L 564.166229 -107.303893 
L 563.349438 -107.122197 
L 562.532697 -106.93723 
L 561.716009 -106.748995 
L 560.899374 -106.55749 
L 560.082793 -106.362716 
L 559.266266 -106.164673 
L 558.449796 -105.963361 
L 557.633382 -105.758781 
L 556.817026 -105.550933 
L 556.000728 -105.339817 
L 555.18449 -105.125433 
L 554.368312 -104.907782 
L 553.552195 -104.686864 
L 552.736141 -104.462678 
L 551.92015 -104.235226 
L 551.104223 -104.004508 
L 550.28836 -103.770523 
L 549.472564 -103.533273 
L 548.656834 -103.292757 
L 547.841172 -103.048975 
L 547.025579 -102.801929 
L 546.210055 -102.551617 
L 545.394602 -102.298042 
L 544.57922 -102.041202 
L 543.76391 -101.781098 
L 542.948673 -101.51773 
L 542.13351 -101.251099 
L 541.318423 -100.981206 
L 540.503411 -100.708049 
L 539.688476 -100.43163 
L 538.873618 -100.151949 
L 538.05884 -99.869006 
L 537.244141 -99.582802 
L 536.429522 -99.293337 
L 535.614984 -99.000611 
L 534.800529 -98.704624 
L 533.986158 -98.405378 
L 533.17187 -98.102872 
L 532.357667 -97.797106 
L 531.54355 -97.488081 
L 530.72952 -97.175798 
L 529.915578 -96.860256 
L 529.101724 -96.541456 
L 528.28796 -96.219399 
L 528.28796 -96.219399 
L 527.470934 -95.894742 
L 526.653818 -95.572066 
L 525.836614 -95.252688 
L 525.019321 -94.936609 
L 524.201941 -94.623829 
L 523.384475 -94.314347 
L 522.566923 -94.008165 
L 521.749288 -93.705284 
L 520.931568 -93.405702 
L 520.113766 -93.109421 
L 519.295882 -92.81644 
L 518.477918 -92.526761 
L 517.659874 -92.240383 
L 516.84175 -91.957307 
L 516.023549 -91.677533 
L 515.205271 -91.401062 
L 514.386916 -91.127893 
L 513.568486 -90.858027 
L 512.749982 -90.591465 
L 511.931404 -90.328206 
L 511.112754 -90.068251 
L 510.294032 -89.8116 
L 509.47524 -89.558254 
L 508.656377 -89.308212 
L 507.837446 -89.061475 
L 507.018447 -88.818044 
L 506.199381 -88.577918 
L 505.380249 -88.341098 
L 504.561051 -88.107583 
L 503.74179 -87.877376 
L 502.922465 -87.650474 
L 502.103077 -87.42688 
L 501.283628 -87.206592 
L 500.464118 -86.989612 
L 499.644549 -86.77594 
L 498.824921 -86.565575 
L 498.005235 -86.358518 
L 497.185492 -86.154769 
L 496.365693 -85.954329 
L 495.545839 -85.757197 
L 494.72593 -85.563374 
L 493.905969 -85.372861 
L 493.085955 -85.185656 
L 492.265889 -85.001761 
L 491.445774 -84.821176 
L 490.625608 -84.643901 
L 489.805394 -84.469935 
L 488.985132 -84.29928 
L 488.164823 -84.131936 
L 487.344468 -83.967902 
L 486.524068 -83.807179 
L 485.703625 -83.649767 
L 484.883137 -83.495666 
L 484.062608 -83.344876 
L 483.242037 -83.197398 
L 482.421426 -83.053232 
L 481.600776 -82.912377 
L 480.780087 -82.774834 
L 479.95936 -82.640604 
L 479.138596 -82.509686 
L 478.317797 -82.38208 
L 477.496962 -82.257786 
L 476.676094 -82.136806 
L 475.855192 -82.019138 
L 475.034259 -81.904783 
L 474.213294 -81.793741 
L 473.392299 -81.686013 
L 472.571274 -81.581597 
L 471.750221 -81.480495 
L 470.92914 -81.382707 
L 470.108033 -81.288232 
L 469.2869 -81.197071 
L 468.465742 -81.109224 
L 467.64456 -81.024691 
L 466.823356 -80.943472 
L 466.002129 -80.865567 
L 465.180881 -80.790976 
L 464.359613 -80.7197 
L 463.538325 -80.651737 
L 462.717019 -80.58709 
L 461.895696 -80.525756 
L 461.074356 -80.467738 
L 460.253001 -80.413034 
L 459.431631 -80.361644 
L 458.610247 -80.31357 
L 457.78885 -80.26881 
L 456.967441 -80.227365 
L 456.146021 -80.189235 
L 455.324591 -80.15442 
L 454.503152 -80.12292 
L 453.681705 -80.094735 
L 452.86025 -80.069865 
L 452.038789 -80.04831 
L 451.217322 -80.03007 
L 450.395851 -80.015145 
L 449.574376 -80.003535 
L 448.752899 -79.995241 
L 447.931419 -79.990262 
L 447.109939 -79.988597 
L 221.611159 -79.988597 
z
" style="stroke: #ffffff; stroke-opacity: 0.1"/>
    </defs>
    <g clip-path="url(#pa3c04df5e4)">
     <use xlink:href="#mcef4a74e7d" x="0" y="158.4" style="fill: #808080; fill-opacity: 0.1; stroke: #ffffff; stroke-opacity: 0.1"/>
    </g>
   </g>
   <g id="PolyCollection_5">
    <defs>
     <path id="m0ca4011cf5" d="M 609.141917 -135.819065 
L 609.141917 -100.47626 
L 764.15422 -100.47626 
L 764.389087 -100.479225 
L 764.623955 -100.488119 
L 764.858822 -100.502932 
L 765.093689 -100.52365 
L 765.328556 -100.550251 
L 765.563423 -100.582708 
L 765.79829 -100.62099 
L 766.033157 -100.665057 
L 766.268024 -100.714865 
L 766.502892 -100.770364 
L 766.737759 -100.831498 
L 766.972626 -100.898206 
L 767.207493 -100.97042 
L 767.44236 -101.048068 
L 767.677227 -101.131071 
L 767.912094 -101.219346 
L 768.146961 -101.312804 
L 768.381829 -101.411351 
L 768.616696 -101.514887 
L 768.851563 -101.623309 
L 769.08643 -101.736507 
L 769.321297 -101.854367 
L 769.556164 -101.976771 
L 769.791031 -102.103595 
L 770.025898 -102.234712 
L 770.260766 -102.36999 
L 770.495633 -102.509291 
L 770.7305 -102.652477 
L 770.965367 -102.799403 
L 771.200234 -102.949921 
L 771.435101 -103.103879 
L 771.669968 -103.261123 
L 771.904835 -103.421494 
L 772.139703 -103.58483 
L 772.37457 -103.750967 
L 772.609437 -103.919739 
L 772.844304 -104.090974 
L 773.079171 -104.264501 
L 773.314038 -104.440144 
L 773.548905 -104.617728 
L 773.783772 -104.797072 
L 774.01864 -104.977997 
L 774.253507 -105.16032 
L 774.488374 -105.343858 
L 774.723241 -105.528426 
L 774.958108 -105.713839 
L 775.192975 -105.899908 
L 775.427842 -106.086448 
L 775.662709 -106.273269 
L 775.897577 -106.460185 
L 776.132444 -106.647007 
L 776.367311 -106.833547 
L 776.602178 -107.019616 
L 776.837045 -107.205028 
L 777.071912 -107.389596 
L 777.306779 -107.573134 
L 777.541646 -107.755458 
L 777.776514 -107.936383 
L 778.011381 -108.115727 
L 778.246248 -108.293311 
L 778.481115 -108.468954 
L 778.715982 -108.642481 
L 778.950849 -108.813716 
L 779.185716 -108.982487 
L 779.420583 -109.148625 
L 779.655451 -109.311961 
L 779.890318 -109.472332 
L 780.125185 -109.629575 
L 780.360052 -109.783534 
L 780.594919 -109.934052 
L 780.829786 -110.080977 
L 781.064653 -110.224163 
L 781.29952 -110.363465 
L 781.534388 -110.498742 
L 781.769255 -110.629859 
L 782.004122 -110.756683 
L 782.238989 -110.879087 
L 782.473856 -110.996948 
L 782.708723 -111.110146 
L 782.94359 -111.218567 
L 783.178457 -111.322104 
L 783.413325 -111.420651 
L 783.648192 -111.514109 
L 783.883059 -111.602384 
L 784.117926 -111.685387 
L 784.352793 -111.763034 
L 784.58766 -111.835248 
L 784.822527 -111.901956 
L 785.057394 -111.96309 
L 785.292262 -112.01859 
L 785.527129 -112.068398 
L 785.761996 -112.112465 
L 785.996863 -112.150746 
L 786.23173 -112.183204 
L 786.466597 -112.209805 
L 786.701464 -112.230522 
L 786.936332 -112.245335 
L 787.171199 -112.254229 
L 787.406066 -112.257195 
L 787.406066 -135.819065 
L 787.406066 -135.819065 
L 787.171199 -135.819065 
L 786.936332 -135.819065 
L 786.701464 -135.819065 
L 786.466597 -135.819065 
L 786.23173 -135.819065 
L 785.996863 -135.819065 
L 785.761996 -135.819065 
L 785.527129 -135.819065 
L 785.292262 -135.819065 
L 785.057394 -135.819065 
L 784.822527 -135.819065 
L 784.58766 -135.819065 
L 784.352793 -135.819065 
L 784.117926 -135.819065 
L 783.883059 -135.819065 
L 783.648192 -135.819065 
L 783.413325 -135.819065 
L 783.178457 -135.819065 
L 782.94359 -135.819065 
L 782.708723 -135.819065 
L 782.473856 -135.819065 
L 782.238989 -135.819065 
L 782.004122 -135.819065 
L 781.769255 -135.819065 
L 781.534388 -135.819065 
L 781.29952 -135.819065 
L 781.064653 -135.819065 
L 780.829786 -135.819065 
L 780.594919 -135.819065 
L 780.360052 -135.819065 
L 780.125185 -135.819065 
L 779.890318 -135.819065 
L 779.655451 -135.819065 
L 779.420583 -135.819065 
L 779.185716 -135.819065 
L 778.950849 -135.819065 
L 778.715982 -135.819065 
L 778.481115 -135.819065 
L 778.246248 -135.819065 
L 778.011381 -135.819065 
L 777.776514 -135.819065 
L 777.541646 -135.819065 
L 777.306779 -135.819065 
L 777.071912 -135.819065 
L 776.837045 -135.819065 
L 776.602178 -135.819065 
L 776.367311 -135.819065 
L 776.132444 -135.819065 
L 775.897577 -135.819065 
L 775.662709 -135.819065 
L 775.427842 -135.819065 
L 775.192975 -135.819065 
L 774.958108 -135.819065 
L 774.723241 -135.819065 
L 774.488374 -135.819065 
L 774.253507 -135.819065 
L 774.01864 -135.819065 
L 773.783772 -135.819065 
L 773.548905 -135.819065 
L 773.314038 -135.819065 
L 773.079171 -135.819065 
L 772.844304 -135.819065 
L 772.609437 -135.819065 
L 772.37457 -135.819065 
L 772.139703 -135.819065 
L 771.904835 -135.819065 
L 771.669968 -135.819065 
L 771.435101 -135.819065 
L 771.200234 -135.819065 
L 770.965367 -135.819065 
L 770.7305 -135.819065 
L 770.495633 -135.819065 
L 770.260766 -135.819065 
L 770.025898 -135.819065 
L 769.791031 -135.819065 
L 769.556164 -135.819065 
L 769.321297 -135.819065 
L 769.08643 -135.819065 
L 768.851563 -135.819065 
L 768.616696 -135.819065 
L 768.381829 -135.819065 
L 768.146961 -135.819065 
L 767.912094 -135.819065 
L 767.677227 -135.819065 
L 767.44236 -135.819065 
L 767.207493 -135.819065 
L 766.972626 -135.819065 
L 766.737759 -135.819065 
L 766.502892 -135.819065 
L 766.268024 -135.819065 
L 766.033157 -135.819065 
L 765.79829 -135.819065 
L 765.563423 -135.819065 
L 765.328556 -135.819065 
L 765.093689 -135.819065 
L 764.858822 -135.819065 
L 764.623955 -135.819065 
L 764.389087 -135.819065 
L 764.15422 -135.819065 
L 609.141917 -135.819065 
z
" style="stroke: #ffffff; stroke-opacity: 0.1"/>
    </defs>
    <g clip-path="url(#pa3c04df5e4)">
     <use xlink:href="#m0ca4011cf5" x="0" y="158.4" style="fill: #ff0000; fill-opacity: 0.1; stroke: #ffffff; stroke-opacity: 0.1"/>
    </g>
   </g>
   <g id="PolyCollection_6">
    <defs>
     <path id="mdd84481706" d="M 787.406066 -135.819065 
L 787.406066 -112.257195 
L 841.660372 -112.257195 
L 841.660372 -135.819065 
L 841.660372 -135.819065 
L 787.406066 -135.819065 
z
" style="stroke: #ffffff; stroke-opacity: 0.1"/>
    </defs>
    <g clip-path="url(#pa3c04df5e4)">
     <use xlink:href="#mdd84481706" x="0" y="158.4" style="fill: #008000; fill-opacity: 0.1; stroke: #ffffff; stroke-opacity: 0.1"/>
    </g>
   </g>
   <g id="matplotlib.axis_1">
    <g id="xtick_1">
     <g id="line2d_6">
      <defs>
       <path id="mb9fd8316cb" d="M 0 0 
L 0 3.5 
" style="stroke: #000000; stroke-width: 0.8"/>
      </defs>
      <g>
       <use xlink:href="#mb9fd8316cb" x="144.105007" y="110.68" style="stroke: #000000; stroke-width: 0.8"/>
      </g>
     </g>
     <g id="text_1">
      <!-- −600 -->
      <g transform="translate(131.717117 125.553594)scale(0.11 -0.11)">
       <defs>
        <path id="ArialMT-2212" d="M 3381 1997 
L 356 1997 
L 356 2522 
L 3381 2522 
L 3381 1997 
z
" transform="scale(0.015625)"/>
        <path id="ArialMT-36" d="M 3184 3459 
L 2625 3416 
Q 2550 3747 2413 3897 
Q 2184 4138 1850 4138 
Q 1581 4138 1378 3988 
Q 1113 3794 959 3422 
Q 806 3050 800 2363 
Q 1003 2672 1297 2822 
Q 1591 2972 1913 2972 
Q 2475 2972 2870 2558 
Q 3266 2144 3266 1488 
Q 3266 1056 3080 686 
Q 2894 316 2569 119 
Q 2244 -78 1831 -78 
Q 1128 -78 684 439 
Q 241 956 241 2144 
Q 241 3472 731 4075 
Q 1159 4600 1884 4600 
Q 2425 4600 2770 4297 
Q 3116 3994 3184 3459 
z
M 888 1484 
Q 888 1194 1011 928 
Q 1134 663 1356 523 
Q 1578 384 1822 384 
Q 2178 384 2434 671 
Q 2691 959 2691 1453 
Q 2691 1928 2437 2201 
Q 2184 2475 1800 2475 
Q 1419 2475 1153 2201 
Q 888 1928 888 1484 
z
" transform="scale(0.015625)"/>
        <path id="ArialMT-30" d="M 266 2259 
Q 266 3072 433 3567 
Q 600 4063 929 4331 
Q 1259 4600 1759 4600 
Q 2128 4600 2406 4451 
Q 2684 4303 2865 4023 
Q 3047 3744 3150 3342 
Q 3253 2941 3253 2259 
Q 3253 1453 3087 958 
Q 2922 463 2592 192 
Q 2263 -78 1759 -78 
Q 1097 -78 719 397 
Q 266 969 266 2259 
z
M 844 2259 
Q 844 1131 1108 757 
Q 1372 384 1759 384 
Q 2147 384 2411 759 
Q 2675 1134 2675 2259 
Q 2675 3391 2411 3762 
Q 2147 4134 1753 4134 
Q 1366 4134 1134 3806 
Q 844 3388 844 2259 
z
" transform="scale(0.015625)"/>
       </defs>
       <use xlink:href="#ArialMT-2212"/>
       <use xlink:href="#ArialMT-36" x="58.398438"/>
       <use xlink:href="#ArialMT-30" x="114.013672"/>
       <use xlink:href="#ArialMT-30" x="169.628906"/>
      </g>
     </g>
    </g>
    <g id="xtick_2">
     <g id="line2d_7">
      <g>
       <use xlink:href="#mb9fd8316cb" x="221.611159" y="110.68" style="stroke: #000000; stroke-width: 0.8"/>
      </g>
     </g>
     <g id="text_2">
      <!-- −500 -->
      <g transform="translate(209.223268 125.553594)scale(0.11 -0.11)">
       <defs>
        <path id="ArialMT-35" d="M 266 1200 
L 856 1250 
Q 922 819 1161 601 
Q 1400 384 1738 384 
Q 2144 384 2425 690 
Q 2706 997 2706 1503 
Q 2706 1984 2436 2262 
Q 2166 2541 1728 2541 
Q 1456 2541 1237 2417 
Q 1019 2294 894 2097 
L 366 2166 
L 809 4519 
L 3088 4519 
L 3088 3981 
L 1259 3981 
L 1013 2750 
Q 1425 3038 1878 3038 
Q 2478 3038 2890 2622 
Q 3303 2206 3303 1553 
Q 3303 931 2941 478 
Q 2500 -78 1738 -78 
Q 1113 -78 717 272 
Q 322 622 266 1200 
z
" transform="scale(0.015625)"/>
       </defs>
       <use xlink:href="#ArialMT-2212"/>
       <use xlink:href="#ArialMT-35" x="58.398438"/>
       <use xlink:href="#ArialMT-30" x="114.013672"/>
       <use xlink:href="#ArialMT-30" x="169.628906"/>
      </g>
     </g>
    </g>
    <g id="xtick_3">
     <g id="line2d_8">
      <g>
       <use xlink:href="#mb9fd8316cb" x="299.11731" y="110.68" style="stroke: #000000; stroke-width: 0.8"/>
      </g>
     </g>
     <g id="text_3">
      <!-- −400 -->
      <g transform="translate(286.72942 125.553594)scale(0.11 -0.11)">
       <defs>
        <path id="ArialMT-34" d="M 2069 0 
L 2069 1097 
L 81 1097 
L 81 1613 
L 2172 4581 
L 2631 4581 
L 2631 1613 
L 3250 1613 
L 3250 1097 
L 2631 1097 
L 2631 0 
L 2069 0 
z
M 2069 1613 
L 2069 3678 
L 634 1613 
L 2069 1613 
z
" transform="scale(0.015625)"/>
       </defs>
       <use xlink:href="#ArialMT-2212"/>
       <use xlink:href="#ArialMT-34" x="58.398438"/>
       <use xlink:href="#ArialMT-30" x="114.013672"/>
       <use xlink:href="#ArialMT-30" x="169.628906"/>
      </g>
     </g>
    </g>
    <g id="xtick_4">
     <g id="line2d_9">
      <g>
       <use xlink:href="#mb9fd8316cb" x="376.623462" y="110.68" style="stroke: #000000; stroke-width: 0.8"/>
      </g>
     </g>
     <g id="text_4">
      <!-- −300 -->
      <g transform="translate(364.235571 125.553594)scale(0.11 -0.11)">
       <defs>
        <path id="ArialMT-33" d="M 269 1209 
L 831 1284 
Q 928 806 1161 595 
Q 1394 384 1728 384 
Q 2125 384 2398 659 
Q 2672 934 2672 1341 
Q 2672 1728 2419 1979 
Q 2166 2231 1775 2231 
Q 1616 2231 1378 2169 
L 1441 2663 
Q 1497 2656 1531 2656 
Q 1891 2656 2178 2843 
Q 2466 3031 2466 3422 
Q 2466 3731 2256 3934 
Q 2047 4138 1716 4138 
Q 1388 4138 1169 3931 
Q 950 3725 888 3313 
L 325 3413 
Q 428 3978 793 4289 
Q 1159 4600 1703 4600 
Q 2078 4600 2393 4439 
Q 2709 4278 2876 4000 
Q 3044 3722 3044 3409 
Q 3044 3113 2884 2869 
Q 2725 2625 2413 2481 
Q 2819 2388 3044 2092 
Q 3269 1797 3269 1353 
Q 3269 753 2831 336 
Q 2394 -81 1725 -81 
Q 1122 -81 723 278 
Q 325 638 269 1209 
z
" transform="scale(0.015625)"/>
       </defs>
       <use xlink:href="#ArialMT-2212"/>
       <use xlink:href="#ArialMT-33" x="58.398438"/>
       <use xlink:href="#ArialMT-30" x="114.013672"/>
       <use xlink:href="#ArialMT-30" x="169.628906"/>
      </g>
     </g>
    </g>
    <g id="xtick_5">
     <g id="line2d_10">
      <g>
       <use xlink:href="#mb9fd8316cb" x="454.129614" y="110.68" style="stroke: #000000; stroke-width: 0.8"/>
      </g>
     </g>
     <g id="text_5">
      <!-- −200 -->
      <g transform="translate(441.741723 125.553594)scale(0.11 -0.11)">
       <defs>
        <path id="ArialMT-32" d="M 3222 541 
L 3222 0 
L 194 0 
Q 188 203 259 391 
Q 375 700 629 1000 
Q 884 1300 1366 1694 
Q 2113 2306 2375 2664 
Q 2638 3022 2638 3341 
Q 2638 3675 2398 3904 
Q 2159 4134 1775 4134 
Q 1369 4134 1125 3890 
Q 881 3647 878 3216 
L 300 3275 
Q 359 3922 746 4261 
Q 1134 4600 1788 4600 
Q 2447 4600 2831 4234 
Q 3216 3869 3216 3328 
Q 3216 3053 3103 2787 
Q 2991 2522 2730 2228 
Q 2469 1934 1863 1422 
Q 1356 997 1212 845 
Q 1069 694 975 541 
L 3222 541 
z
" transform="scale(0.015625)"/>
       </defs>
       <use xlink:href="#ArialMT-2212"/>
       <use xlink:href="#ArialMT-32" x="58.398438"/>
       <use xlink:href="#ArialMT-30" x="114.013672"/>
       <use xlink:href="#ArialMT-30" x="169.628906"/>
      </g>
     </g>
    </g>
    <g id="xtick_6">
     <g id="line2d_11">
      <g>
       <use xlink:href="#mb9fd8316cb" x="531.635765" y="110.68" style="stroke: #000000; stroke-width: 0.8"/>
      </g>
     </g>
     <g id="text_6">
      <!-- −100 -->
      <g transform="translate(519.247875 125.553594)scale(0.11 -0.11)">
       <defs>
        <path id="ArialMT-31" d="M 2384 0 
L 1822 0 
L 1822 3584 
Q 1619 3391 1289 3197 
Q 959 3003 697 2906 
L 697 3450 
Q 1169 3672 1522 3987 
Q 1875 4303 2022 4600 
L 2384 4600 
L 2384 0 
z
" transform="scale(0.015625)"/>
       </defs>
       <use xlink:href="#ArialMT-2212"/>
       <use xlink:href="#ArialMT-31" x="58.398438"/>
       <use xlink:href="#ArialMT-30" x="114.013672"/>
       <use xlink:href="#ArialMT-30" x="169.628906"/>
      </g>
     </g>
    </g>
    <g id="xtick_7">
     <g id="line2d_12">
      <g>
       <use xlink:href="#mb9fd8316cb" x="609.141917" y="110.68" style="stroke: #000000; stroke-width: 0.8"/>
      </g>
     </g>
     <g id="text_7">
      <!-- 0 -->
      <g transform="translate(606.083401 125.553594)scale(0.11 -0.11)">
       <use xlink:href="#ArialMT-30"/>
      </g>
     </g>
    </g>
    <g id="text_8">
     <!-- $p~\mathrm{(m)}$ -->
     <g transform="translate(379.68 140.859844)scale(0.12 -0.12)">
      <defs>
       <path id="DejaVuSans-Oblique-70" d="M 3175 2156 
Q 3175 2616 2975 2859 
Q 2775 3103 2400 3103 
Q 2144 3103 1911 2972 
Q 1678 2841 1497 2591 
Q 1319 2344 1212 1994 
Q 1106 1644 1106 1300 
Q 1106 863 1306 627 
Q 1506 391 1875 391 
Q 2147 391 2380 519 
Q 2613 647 2778 891 
Q 2956 1147 3065 1494 
Q 3175 1841 3175 2156 
z
M 1394 2969 
Q 1625 3272 1939 3428 
Q 2253 3584 2638 3584 
Q 3175 3584 3472 3232 
Q 3769 2881 3769 2247 
Q 3769 1728 3584 1258 
Q 3400 788 3053 416 
Q 2822 169 2531 39 
Q 2241 -91 1919 -91 
Q 1547 -91 1294 64 
Q 1041 219 916 525 
L 556 -1331 
L -19 -1331 
L 922 3500 
L 1497 3500 
L 1394 2969 
z
" transform="scale(0.015625)"/>
       <path id="DejaVuSans-28" d="M 1984 4856 
Q 1566 4138 1362 3434 
Q 1159 2731 1159 2009 
Q 1159 1288 1364 580 
Q 1569 -128 1984 -844 
L 1484 -844 
Q 1016 -109 783 600 
Q 550 1309 550 2009 
Q 550 2706 781 3412 
Q 1013 4119 1484 4856 
L 1984 4856 
z
" transform="scale(0.015625)"/>
       <path id="DejaVuSans-6d" d="M 3328 2828 
Q 3544 3216 3844 3400 
Q 4144 3584 4550 3584 
Q 5097 3584 5394 3201 
Q 5691 2819 5691 2113 
L 5691 0 
L 5113 0 
L 5113 2094 
Q 5113 2597 4934 2840 
Q 4756 3084 4391 3084 
Q 3944 3084 3684 2787 
Q 3425 2491 3425 1978 
L 3425 0 
L 2847 0 
L 2847 2094 
Q 2847 2600 2669 2842 
Q 2491 3084 2119 3084 
Q 1678 3084 1418 2786 
Q 1159 2488 1159 1978 
L 1159 0 
L 581 0 
L 581 3500 
L 1159 3500 
L 1159 2956 
Q 1356 3278 1631 3431 
Q 1906 3584 2284 3584 
Q 2666 3584 2933 3390 
Q 3200 3197 3328 2828 
z
" transform="scale(0.015625)"/>
       <path id="DejaVuSans-29" d="M 513 4856 
L 1013 4856 
Q 1481 4119 1714 3412 
Q 1947 2706 1947 2009 
Q 1947 1309 1714 600 
Q 1481 -109 1013 -844 
L 513 -844 
Q 928 -128 1133 580 
Q 1338 1288 1338 2009 
Q 1338 2731 1133 3434 
Q 928 4138 513 4856 
z
" transform="scale(0.015625)"/>
      </defs>
      <use xlink:href="#DejaVuSans-Oblique-70" transform="translate(0 0.125)"/>
      <use xlink:href="#DejaVuSans-28" transform="translate(95.946941 0.125)"/>
      <use xlink:href="#DejaVuSans-6d" transform="translate(134.960613 0.125)"/>
      <use xlink:href="#DejaVuSans-29" transform="translate(232.372722 0.125)"/>
     </g>
    </g>
   </g>
   <g id="matplotlib.axis_2"/>
   <g id="patch_3">
    <path d="M 144.105007 110.68 
L 647.894993 110.68 
" style="fill: none; stroke: #000000; stroke-width: 0.8; stroke-linejoin: miter; stroke-linecap: square"/>
   </g>
   <g id="patch_4">
    <path d="M 500.886589 79.412917 
L 497.893649 80.221519 
L 496.741391 75.95658 
L 499.734331 75.147978 
z
" clip-path="url(#pa3c04df5e4)" style="fill: #ff0000; stroke: #ff0000; stroke-width: 2; stroke-linejoin: miter"/>
   </g>
   <g id="patch_5">
    <path d="M 487.17933 82.572272 
L 484.138771 83.177683 
L 483.27606 78.844886 
L 486.31662 78.239475 
z
" clip-path="url(#pa3c04df5e4)" style="fill: #808080; stroke: #808080; stroke-width: 2; stroke-linejoin: miter"/>
   </g>
   <g id="patch_6">
    <path d="M 460.069444 86.099054 
L 456.975454 86.295915 
L 456.694927 81.88698 
L 459.788917 81.690119 
z
" clip-path="url(#pa3c04df5e4)" style="fill: #ff0000; stroke: #ff0000; stroke-width: 2; stroke-linejoin: miter"/>
   </g>
   <g id="patch_7">
    <path d="M 446.337418 86.510795 
L 443.237172 86.510795 
L 443.237172 82.092945 
L 446.337418 82.092945 
z
" clip-path="url(#pa3c04df5e4)" style="fill: #808080; stroke: #808080; stroke-width: 2; stroke-linejoin: miter"/>
   </g>
   <g id="patch_8">
    <path d="M 432.604789 86.510795 
L 429.504543 86.510795 
L 429.504543 82.092945 
L 432.604789 82.092945 
z
" clip-path="url(#pa3c04df5e4)" style="fill: #808080; stroke: #808080; stroke-width: 2; stroke-linejoin: miter"/>
   </g>
   <g id="patch_9">
    <path d="M 401.602328 86.510795 
L 398.502082 86.510795 
L 398.502082 82.092945 
L 401.602328 82.092945 
z
" clip-path="url(#pa3c04df5e4)" style="fill: #ff0000; stroke: #ff0000; stroke-width: 2; stroke-linejoin: miter"/>
   </g>
   <g id="patch_10">
    <path d="M 374.475175 86.510795 
L 371.374929 86.510795 
L 371.374929 82.092945 
L 374.475175 82.092945 
z
" clip-path="url(#pa3c04df5e4)" style="fill: #ff0000; stroke: #ff0000; stroke-width: 2; stroke-linejoin: miter"/>
   </g>
   <g id="patch_11">
    <path d="M 360.742545 86.510795 
L 357.642299 86.510795 
L 357.642299 82.092945 
L 360.742545 82.092945 
z
" clip-path="url(#pa3c04df5e4)" style="fill: #808080; stroke: #808080; stroke-width: 2; stroke-linejoin: miter"/>
   </g>
   <g id="patch_12">
    <path d="M 329.740085 86.510795 
L 326.639839 86.510795 
L 326.639839 82.092945 
L 329.740085 82.092945 
z
" clip-path="url(#pa3c04df5e4)" style="fill: #ff0000; stroke: #ff0000; stroke-width: 2; stroke-linejoin: miter"/>
   </g>
   <g id="patch_13">
    <path d="M 485.132074 42.461263 
L 482.031828 42.461263 
L 482.031828 38.043412 
L 485.132074 38.043412 
z
" clip-path="url(#pa3c04df5e4)" style="fill: #0000ff; stroke: #0000ff; stroke-width: 2; stroke-linejoin: miter"/>
   </g>
   <g id="patch_14">
    <path d="M 471.180967 42.461263 
L 468.080721 42.461263 
L 468.080721 38.043412 
L 471.180967 38.043412 
z
" clip-path="url(#pa3c04df5e4)" style="fill: #0000ff; stroke: #0000ff; stroke-width: 2; stroke-linejoin: miter"/>
   </g>
   <g id="patch_15">
    <path d="M 457.22986 42.461263 
L 454.129614 42.461263 
L 454.129614 38.043412 
L 457.22986 38.043412 
z
" clip-path="url(#pa3c04df5e4)" style="fill: #0000ff; stroke: #0000ff; stroke-width: 2; stroke-linejoin: miter"/>
   </g>
   <g id="patch_16">
    <path d="M 410.726169 42.461263 
L 407.625923 42.461263 
L 407.625923 38.043412 
L 410.726169 38.043412 
z
" clip-path="url(#pa3c04df5e4)" style="fill: #0000ff; stroke: #0000ff; stroke-width: 2; stroke-linejoin: miter"/>
   </g>
   <g id="patch_17">
    <path d="M 396.775062 42.461263 
L 393.674815 42.461263 
L 393.674815 38.043412 
L 396.775062 38.043412 
z
" clip-path="url(#pa3c04df5e4)" style="fill: #0000ff; stroke: #0000ff; stroke-width: 2; stroke-linejoin: miter"/>
   </g>
   <g id="patch_18">
    <path d="M 350.271371 42.461263 
L 347.171124 42.461263 
L 347.171124 38.043412 
L 350.271371 38.043412 
z
" clip-path="url(#pa3c04df5e4)" style="fill: #0000ff; stroke: #0000ff; stroke-width: 2; stroke-linejoin: miter"/>
   </g>
   <g id="patch_19">
    <path d="M 332.370042 42.461263 
L 329.269796 42.461263 
L 329.269796 38.043412 
L 332.370042 38.043412 
z
" clip-path="url(#pa3c04df5e4)" style="fill: #808080; stroke: #808080; stroke-width: 2; stroke-linejoin: miter"/>
   </g>
   <g id="patch_20">
    <path d="M 285.866351 42.461263 
L 282.766105 42.461263 
L 282.766105 38.043412 
L 285.866351 38.043412 
z
" clip-path="url(#pa3c04df5e4)" style="fill: #0000ff; stroke: #0000ff; stroke-width: 2; stroke-linejoin: miter"/>
   </g>
   <g id="patch_21">
    <path d="M 247.113275 42.461263 
L 244.013029 42.461263 
L 244.013029 38.043412 
L 247.113275 38.043412 
z
" clip-path="url(#pa3c04df5e4)" style="fill: #0000ff; stroke: #0000ff; stroke-width: 2; stroke-linejoin: miter"/>
   </g>
   <g id="patch_22">
    <path d="M 233.162168 42.461263 
L 230.061922 42.461263 
L 230.061922 38.043412 
L 233.162168 38.043412 
z
" clip-path="url(#pa3c04df5e4)" style="fill: #0000ff; stroke: #0000ff; stroke-width: 2; stroke-linejoin: miter"/>
   </g>
   <g id="patch_23">
    <path d="M 189.758723 42.461263 
L 186.658477 42.461263 
L 186.658477 38.043412 
L 189.758723 38.043412 
z
" clip-path="url(#pa3c04df5e4)" style="fill: #0000ff; stroke: #0000ff; stroke-width: 2; stroke-linejoin: miter"/>
   </g>
   <g id="patch_24">
    <path d="M 171.857394 42.461263 
L 168.757148 42.461263 
L 168.757148 38.043412 
L 171.857394 38.043412 
z
" clip-path="url(#pa3c04df5e4)" style="fill: #808080; stroke: #808080; stroke-width: 2; stroke-linejoin: miter"/>
   </g>
   <g id="patch_25">
    <path d="M 153.956066 42.461263 
L 150.855819 42.461263 
L 150.855819 38.043412 
L 153.956066 38.043412 
z
" clip-path="url(#pa3c04df5e4)" style="fill: #808080; stroke: #808080; stroke-width: 2; stroke-linejoin: miter"/>
   </g>
   <g id="patch_26">
    <path d="M 512.259227 30.680328 
L 509.158981 30.680328 
L 509.158981 26.262477 
L 512.259227 26.262477 
z
" clip-path="url(#pa3c04df5e4)" style="fill: #800080; stroke: #800080; stroke-width: 2; stroke-linejoin: miter"/>
   </g>
   <g id="patch_27">
    <path d="M 434.753076 30.680328 
L 431.65283 30.680328 
L 431.65283 26.262477 
L 434.753076 26.262477 
z
" clip-path="url(#pa3c04df5e4)" style="fill: #800080; stroke: #800080; stroke-width: 2; stroke-linejoin: miter"/>
   </g>
   <g id="patch_28">
    <path d="M 418.476784 30.680328 
L 415.376538 30.680328 
L 415.376538 26.262477 
L 418.476784 26.262477 
z
" clip-path="url(#pa3c04df5e4)" style="fill: #800080; stroke: #800080; stroke-width: 2; stroke-linejoin: miter"/>
   </g>
   <g id="patch_29">
    <path d="M 402.200492 30.680328 
L 399.100246 30.680328 
L 399.100246 26.262477 
L 402.200492 26.262477 
z
" clip-path="url(#pa3c04df5e4)" style="fill: #800080; stroke: #800080; stroke-width: 2; stroke-linejoin: miter"/>
   </g>
   <g id="patch_30">
    <path d="M 334.382609 30.680328 
L 331.282363 30.680328 
L 331.282363 26.262477 
L 334.382609 26.262477 
z
" clip-path="url(#pa3c04df5e4)" style="fill: #800080; stroke: #800080; stroke-width: 2; stroke-linejoin: miter"/>
   </g>
   <g id="patch_31">
    <path d="M 311.905825 30.680328 
L 308.805579 30.680328 
L 308.805579 26.262477 
L 311.905825 26.262477 
z
" clip-path="url(#pa3c04df5e4)" style="fill: #808080; stroke: #808080; stroke-width: 2; stroke-linejoin: miter"/>
   </g>
   <g id="patch_32">
    <path d="M 253.776212 30.680328 
L 250.675966 30.680328 
L 250.675966 26.262477 
L 253.776212 26.262477 
z
" clip-path="url(#pa3c04df5e4)" style="fill: #800080; stroke: #800080; stroke-width: 2; stroke-linejoin: miter"/>
   </g>
   <g id="patch_33">
    <path d="M 237.49992 30.680328 
L 234.399674 30.680328 
L 234.399674 26.262477 
L 237.49992 26.262477 
z
" clip-path="url(#pa3c04df5e4)" style="fill: #800080; stroke: #800080; stroke-width: 2; stroke-linejoin: miter"/>
   </g>
   <g id="patch_34">
    <path d="M 179.370306 30.680328 
L 176.27006 30.680328 
L 176.27006 26.262477 
L 179.370306 26.262477 
z
" clip-path="url(#pa3c04df5e4)" style="fill: #800080; stroke: #800080; stroke-width: 2; stroke-linejoin: miter"/>
   </g>
   <g id="patch_35">
    <path d="M 156.893522 30.680328 
L 153.793276 30.680328 
L 153.793276 26.262477 
L 156.893522 26.262477 
z
" clip-path="url(#pa3c04df5e4)" style="fill: #808080; stroke: #808080; stroke-width: 2; stroke-linejoin: miter"/>
   </g>
  </g>
 </g>
 <defs>
  <clipPath id="pa3c04df5e4">
   <rect x="144.105007" y="10.8" width="503.789986" height="99.88"/>
  </clipPath>
 </defs>
</svg>
