<?xml version="1.0" encoding="utf-8" standalone="no"?>
<!DOCTYPE svg PUBLIC "-//W3C//DTD SVG 1.1//EN"
  "http://www.w3.org/Graphics/SVG/1.1/DTD/svg11.dtd">
<svg height="288pt" version="1.1" viewBox="0 0 360 288" width="360pt" xmlns="http://www.w3.org/2000/svg" xmlns:xlink="http://www.w3.org/1999/xlink">
 <metadata>
  <rdf:RDF xmlns:cc="http://creativecommons.org/ns#" xmlns:dc="http://purl.org/dc/elements/1.1/" xmlns:rdf="http://www.w3.org/1999/02/22-rdf-syntax-ns#">
   <cc:Work>
    <dc:type rdf:resource="http://purl.org/dc/dcmitype/StillImage"/>
    <dc:date>2023-07-18T10:38:27.631958</dc:date>
    <dc:format>image/svg+xml</dc:format>
    <dc:creator>
     <cc:Agent>
      <dc:title>Matplotlib v3.4.3, https://matplotlib.org/</dc:title>
     </cc:Agent>
    </dc:creator>
   </cc:Work>
  </rdf:RDF>
 </metadata>
 <defs>
  <style type="text/css">*{stroke-linecap:butt;stroke-linejoin:round;}</style>
 </defs>
 <g id="figure_1">
  <g id="patch_1">
   <path d="M 0 288 
L 360 288 
L 360 0 
L 0 0 
z
" style="fill:#ffffff;"/>
  </g>
  <g id="axes_1">
   <g id="patch_2">
    <path d="M 66.71 106.14067 
L 349.2 106.14067 
L 349.2 11.223158 
L 66.71 11.223158 
z
" style="fill:#ffffff;"/>
   </g>
   <g id="matplotlib.axis_1">
    <g id="xtick_1">
     <g id="line2d_1">
      <defs>
       <path d="M 0 0 
L 0 3.5 
" id="m9f0b20a6c0" style="stroke:#000000;stroke-width:0.8;"/>
      </defs>
      <g>
       <use style="stroke:#000000;stroke-width:0.8;" x="79.265111" xlink:href="#m9f0b20a6c0" y="106.14067"/>
      </g>
     </g>
     <g id="text_1">
      <!-- 0 -->
      <g transform="translate(76.083861 120.739107)scale(0.1 -0.1)">
       <defs>
        <path d="M 2034 4250 
Q 1547 4250 1301 3770 
Q 1056 3291 1056 2328 
Q 1056 1369 1301 889 
Q 1547 409 2034 409 
Q 2525 409 2770 889 
Q 3016 1369 3016 2328 
Q 3016 3291 2770 3770 
Q 2525 4250 2034 4250 
z
M 2034 4750 
Q 2819 4750 3233 4129 
Q 3647 3509 3647 2328 
Q 3647 1150 3233 529 
Q 2819 -91 2034 -91 
Q 1250 -91 836 529 
Q 422 1150 422 2328 
Q 422 3509 836 4129 
Q 1250 4750 2034 4750 
z
" id="DejaVuSans-30" transform="scale(0.015625)"/>
       </defs>
       <use xlink:href="#DejaVuSans-30"/>
      </g>
     </g>
    </g>
    <g id="xtick_2">
     <g id="line2d_2">
      <g>
       <use style="stroke:#000000;stroke-width:0.8;" x="142.040667" xlink:href="#m9f0b20a6c0" y="106.14067"/>
      </g>
     </g>
     <g id="text_2">
      <!-- 100 -->
      <g transform="translate(132.496917 120.739107)scale(0.1 -0.1)">
       <defs>
        <path d="M 794 531 
L 1825 531 
L 1825 4091 
L 703 3866 
L 703 4441 
L 1819 4666 
L 2450 4666 
L 2450 531 
L 3481 531 
L 3481 0 
L 794 0 
L 794 531 
z
" id="DejaVuSans-31" transform="scale(0.015625)"/>
       </defs>
       <use xlink:href="#DejaVuSans-31"/>
       <use x="63.623047" xlink:href="#DejaVuSans-30"/>
       <use x="127.246094" xlink:href="#DejaVuSans-30"/>
      </g>
     </g>
    </g>
    <g id="xtick_3">
     <g id="line2d_3">
      <g>
       <use style="stroke:#000000;stroke-width:0.8;" x="204.816222" xlink:href="#m9f0b20a6c0" y="106.14067"/>
      </g>
     </g>
     <g id="text_3">
      <!-- 200 -->
      <g transform="translate(195.272472 120.739107)scale(0.1 -0.1)">
       <defs>
        <path d="M 1228 531 
L 3431 531 
L 3431 0 
L 469 0 
L 469 531 
Q 828 903 1448 1529 
Q 2069 2156 2228 2338 
Q 2531 2678 2651 2914 
Q 2772 3150 2772 3378 
Q 2772 3750 2511 3984 
Q 2250 4219 1831 4219 
Q 1534 4219 1204 4116 
Q 875 4013 500 3803 
L 500 4441 
Q 881 4594 1212 4672 
Q 1544 4750 1819 4750 
Q 2544 4750 2975 4387 
Q 3406 4025 3406 3419 
Q 3406 3131 3298 2873 
Q 3191 2616 2906 2266 
Q 2828 2175 2409 1742 
Q 1991 1309 1228 531 
z
" id="DejaVuSans-32" transform="scale(0.015625)"/>
       </defs>
       <use xlink:href="#DejaVuSans-32"/>
       <use x="63.623047" xlink:href="#DejaVuSans-30"/>
       <use x="127.246094" xlink:href="#DejaVuSans-30"/>
      </g>
     </g>
    </g>
    <g id="xtick_4">
     <g id="line2d_4">
      <g>
       <use style="stroke:#000000;stroke-width:0.8;" x="267.591778" xlink:href="#m9f0b20a6c0" y="106.14067"/>
      </g>
     </g>
     <g id="text_4">
      <!-- 300 -->
      <g transform="translate(258.048028 120.739107)scale(0.1 -0.1)">
       <defs>
        <path d="M 2597 2516 
Q 3050 2419 3304 2112 
Q 3559 1806 3559 1356 
Q 3559 666 3084 287 
Q 2609 -91 1734 -91 
Q 1441 -91 1130 -33 
Q 819 25 488 141 
L 488 750 
Q 750 597 1062 519 
Q 1375 441 1716 441 
Q 2309 441 2620 675 
Q 2931 909 2931 1356 
Q 2931 1769 2642 2001 
Q 2353 2234 1838 2234 
L 1294 2234 
L 1294 2753 
L 1863 2753 
Q 2328 2753 2575 2939 
Q 2822 3125 2822 3475 
Q 2822 3834 2567 4026 
Q 2313 4219 1838 4219 
Q 1578 4219 1281 4162 
Q 984 4106 628 3988 
L 628 4550 
Q 988 4650 1302 4700 
Q 1616 4750 1894 4750 
Q 2613 4750 3031 4423 
Q 3450 4097 3450 3541 
Q 3450 3153 3228 2886 
Q 3006 2619 2597 2516 
z
" id="DejaVuSans-33" transform="scale(0.015625)"/>
       </defs>
       <use xlink:href="#DejaVuSans-33"/>
       <use x="63.623047" xlink:href="#DejaVuSans-30"/>
       <use x="127.246094" xlink:href="#DejaVuSans-30"/>
      </g>
     </g>
    </g>
    <g id="xtick_5">
     <g id="line2d_5">
      <g>
       <use style="stroke:#000000;stroke-width:0.8;" x="330.367333" xlink:href="#m9f0b20a6c0" y="106.14067"/>
      </g>
     </g>
     <g id="text_5">
      <!-- 400 -->
      <g transform="translate(320.823583 120.739107)scale(0.1 -0.1)">
       <defs>
        <path d="M 2419 4116 
L 825 1625 
L 2419 1625 
L 2419 4116 
z
M 2253 4666 
L 3047 4666 
L 3047 1625 
L 3713 1625 
L 3713 1100 
L 3047 1100 
L 3047 0 
L 2419 0 
L 2419 1100 
L 313 1100 
L 313 1709 
L 2253 4666 
z
" id="DejaVuSans-34" transform="scale(0.015625)"/>
       </defs>
       <use xlink:href="#DejaVuSans-34"/>
       <use x="63.623047" xlink:href="#DejaVuSans-30"/>
       <use x="127.246094" xlink:href="#DejaVuSans-30"/>
      </g>
     </g>
    </g>
    <g id="text_6">
     <!-- $t~\mathrm{(s)}$ -->
     <g transform="translate(197.855 134.417232)scale(0.1 -0.1)">
      <defs>
       <path d="M 2706 3500 
L 2619 3053 
L 1472 3053 
L 1100 1153 
Q 1081 1047 1072 975 
Q 1063 903 1063 863 
Q 1063 663 1183 572 
Q 1303 481 1569 481 
L 2150 481 
L 2053 0 
L 1503 0 
Q 991 0 739 200 
Q 488 400 488 806 
Q 488 878 497 964 
Q 506 1050 525 1153 
L 897 3053 
L 409 3053 
L 500 3500 
L 978 3500 
L 1172 4494 
L 1747 4494 
L 1556 3500 
L 2706 3500 
z
" id="DejaVuSans-Oblique-74" transform="scale(0.015625)"/>
       <path d="M 1984 4856 
Q 1566 4138 1362 3434 
Q 1159 2731 1159 2009 
Q 1159 1288 1364 580 
Q 1569 -128 1984 -844 
L 1484 -844 
Q 1016 -109 783 600 
Q 550 1309 550 2009 
Q 550 2706 781 3412 
Q 1013 4119 1484 4856 
L 1984 4856 
z
" id="DejaVuSans-28" transform="scale(0.015625)"/>
       <path d="M 2834 3397 
L 2834 2853 
Q 2591 2978 2328 3040 
Q 2066 3103 1784 3103 
Q 1356 3103 1142 2972 
Q 928 2841 928 2578 
Q 928 2378 1081 2264 
Q 1234 2150 1697 2047 
L 1894 2003 
Q 2506 1872 2764 1633 
Q 3022 1394 3022 966 
Q 3022 478 2636 193 
Q 2250 -91 1575 -91 
Q 1294 -91 989 -36 
Q 684 19 347 128 
L 347 722 
Q 666 556 975 473 
Q 1284 391 1588 391 
Q 1994 391 2212 530 
Q 2431 669 2431 922 
Q 2431 1156 2273 1281 
Q 2116 1406 1581 1522 
L 1381 1569 
Q 847 1681 609 1914 
Q 372 2147 372 2553 
Q 372 3047 722 3315 
Q 1072 3584 1716 3584 
Q 2034 3584 2315 3537 
Q 2597 3491 2834 3397 
z
" id="DejaVuSans-73" transform="scale(0.015625)"/>
       <path d="M 513 4856 
L 1013 4856 
Q 1481 4119 1714 3412 
Q 1947 2706 1947 2009 
Q 1947 1309 1714 600 
Q 1481 -109 1013 -844 
L 513 -844 
Q 928 -128 1133 580 
Q 1338 1288 1338 2009 
Q 1338 2731 1133 3434 
Q 928 4138 513 4856 
z
" id="DejaVuSans-29" transform="scale(0.015625)"/>
      </defs>
      <use transform="translate(0 0.125)" xlink:href="#DejaVuSans-Oblique-74"/>
      <use transform="translate(71.679363 0.125)" xlink:href="#DejaVuSans-28"/>
      <use transform="translate(110.693035 0.125)" xlink:href="#DejaVuSans-73"/>
      <use transform="translate(162.792644 0.125)" xlink:href="#DejaVuSans-29"/>
     </g>
    </g>
   </g>
   <g id="matplotlib.axis_2">
    <g id="ytick_1">
     <g id="line2d_6">
      <defs>
       <path d="M 0 0 
L -3.5 0 
" id="m776bd0d6a5" style="stroke:#000000;stroke-width:0.8;"/>
      </defs>
      <g>
       <use style="stroke:#000000;stroke-width:0.8;" x="66.71" xlink:href="#m776bd0d6a5" y="97.814572"/>
      </g>
     </g>
     <g id="text_7">
      <!-- 0 -->
      <g transform="translate(53.3475 101.613791)scale(0.1 -0.1)">
       <use xlink:href="#DejaVuSans-30"/>
      </g>
     </g>
    </g>
    <g id="ytick_2">
     <g id="line2d_7">
      <g>
       <use style="stroke:#000000;stroke-width:0.8;" x="66.71" xlink:href="#m776bd0d6a5" y="56.184085"/>
      </g>
     </g>
     <g id="text_8">
      <!-- 250 -->
      <g transform="translate(40.6225 59.983303)scale(0.1 -0.1)">
       <defs>
        <path d="M 691 4666 
L 3169 4666 
L 3169 4134 
L 1269 4134 
L 1269 2991 
Q 1406 3038 1543 3061 
Q 1681 3084 1819 3084 
Q 2600 3084 3056 2656 
Q 3513 2228 3513 1497 
Q 3513 744 3044 326 
Q 2575 -91 1722 -91 
Q 1428 -91 1123 -41 
Q 819 9 494 109 
L 494 744 
Q 775 591 1075 516 
Q 1375 441 1709 441 
Q 2250 441 2565 725 
Q 2881 1009 2881 1497 
Q 2881 1984 2565 2268 
Q 2250 2553 1709 2553 
Q 1456 2553 1204 2497 
Q 953 2441 691 2322 
L 691 4666 
z
" id="DejaVuSans-35" transform="scale(0.015625)"/>
       </defs>
       <use xlink:href="#DejaVuSans-32"/>
       <use x="63.623047" xlink:href="#DejaVuSans-35"/>
       <use x="127.246094" xlink:href="#DejaVuSans-30"/>
      </g>
     </g>
    </g>
    <g id="ytick_3">
     <g id="line2d_8">
      <g>
       <use style="stroke:#000000;stroke-width:0.8;" x="66.71" xlink:href="#m776bd0d6a5" y="14.553597"/>
      </g>
     </g>
     <g id="text_9">
      <!-- 500 -->
      <g transform="translate(40.6225 18.352816)scale(0.1 -0.1)">
       <use xlink:href="#DejaVuSans-35"/>
       <use x="63.623047" xlink:href="#DejaVuSans-30"/>
       <use x="127.246094" xlink:href="#DejaVuSans-30"/>
      </g>
     </g>
    </g>
    <g id="text_10">
     <!-- Cost$:~J~\mathrm{(s)}$ -->
     <g transform="translate(34.5225 84.681914)rotate(-90)scale(0.1 -0.1)">
      <defs>
       <path d="M 4122 4306 
L 4122 3641 
Q 3803 3938 3442 4084 
Q 3081 4231 2675 4231 
Q 1875 4231 1450 3742 
Q 1025 3253 1025 2328 
Q 1025 1406 1450 917 
Q 1875 428 2675 428 
Q 3081 428 3442 575 
Q 3803 722 4122 1019 
L 4122 359 
Q 3791 134 3420 21 
Q 3050 -91 2638 -91 
Q 1578 -91 968 557 
Q 359 1206 359 2328 
Q 359 3453 968 4101 
Q 1578 4750 2638 4750 
Q 3056 4750 3426 4639 
Q 3797 4528 4122 4306 
z
" id="DejaVuSans-43" transform="scale(0.015625)"/>
       <path d="M 1959 3097 
Q 1497 3097 1228 2736 
Q 959 2375 959 1747 
Q 959 1119 1226 758 
Q 1494 397 1959 397 
Q 2419 397 2687 759 
Q 2956 1122 2956 1747 
Q 2956 2369 2687 2733 
Q 2419 3097 1959 3097 
z
M 1959 3584 
Q 2709 3584 3137 3096 
Q 3566 2609 3566 1747 
Q 3566 888 3137 398 
Q 2709 -91 1959 -91 
Q 1206 -91 779 398 
Q 353 888 353 1747 
Q 353 2609 779 3096 
Q 1206 3584 1959 3584 
z
" id="DejaVuSans-6f" transform="scale(0.015625)"/>
       <path d="M 1172 4494 
L 1172 3500 
L 2356 3500 
L 2356 3053 
L 1172 3053 
L 1172 1153 
Q 1172 725 1289 603 
Q 1406 481 1766 481 
L 2356 481 
L 2356 0 
L 1766 0 
Q 1100 0 847 248 
Q 594 497 594 1153 
L 594 3053 
L 172 3053 
L 172 3500 
L 594 3500 
L 594 4494 
L 1172 4494 
z
" id="DejaVuSans-74" transform="scale(0.015625)"/>
       <path d="M 750 794 
L 1409 794 
L 1409 0 
L 750 0 
L 750 794 
z
M 750 3309 
L 1409 3309 
L 1409 2516 
L 750 2516 
L 750 3309 
z
" id="DejaVuSans-3a" transform="scale(0.015625)"/>
       <path d="M 1069 4666 
L 1703 4666 
L 856 325 
Q 691 -522 298 -901 
Q -94 -1281 -800 -1281 
L -1050 -1281 
L -947 -750 
L -750 -750 
Q -328 -750 -109 -509 
Q 109 -269 225 325 
L 1069 4666 
z
" id="DejaVuSans-Oblique-4a" transform="scale(0.015625)"/>
      </defs>
      <use transform="translate(0 0.125)" xlink:href="#DejaVuSans-43"/>
      <use transform="translate(69.824219 0.125)" xlink:href="#DejaVuSans-6f"/>
      <use transform="translate(131.005859 0.125)" xlink:href="#DejaVuSans-73"/>
      <use transform="translate(183.105469 0.125)" xlink:href="#DejaVuSans-74"/>
      <use transform="translate(241.796875 0.125)" xlink:href="#DejaVuSans-3a"/>
      <use transform="translate(327.441082 0.125)" xlink:href="#DejaVuSans-Oblique-4a"/>
      <use transform="translate(389.403647 0.125)" xlink:href="#DejaVuSans-28"/>
      <use transform="translate(428.417319 0.125)" xlink:href="#DejaVuSans-73"/>
      <use transform="translate(480.516929 0.125)" xlink:href="#DejaVuSans-29"/>
     </g>
    </g>
   </g>
   <g id="patch_3">
    <path d="M 66.71 106.14067 
L 66.71 11.223158 
" style="fill:none;stroke:#000000;stroke-linecap:square;stroke-linejoin:miter;stroke-width:0.8;"/>
   </g>
   <g id="patch_4">
    <path d="M 349.2 106.14067 
L 349.2 11.223158 
" style="fill:none;stroke:#000000;stroke-linecap:square;stroke-linejoin:miter;stroke-width:0.8;"/>
   </g>
   <g id="patch_5">
    <path d="M 66.71 106.14067 
L 349.2 106.14067 
" style="fill:none;stroke:#000000;stroke-linecap:square;stroke-linejoin:miter;stroke-width:0.8;"/>
   </g>
   <g id="patch_6">
    <path d="M 66.71 11.223158 
L 349.2 11.223158 
" style="fill:none;stroke:#000000;stroke-linecap:square;stroke-linejoin:miter;stroke-width:0.8;"/>
   </g>
   <g id="legend_1">
    <g id="patch_7">
     <path d="M 73.01 31.63347 
L 152.413906 31.63347 
Q 154.213906 31.63347 154.213906 29.83347 
L 154.213906 17.523158 
Q 154.213906 15.723158 152.413906 15.723158 
L 73.01 15.723158 
Q 71.21 15.723158 71.21 17.523158 
L 71.21 29.83347 
Q 71.21 31.63347 73.01 31.63347 
z
" style="fill:#ffffff;opacity:0.8;stroke:#cccccc;stroke-linejoin:miter;"/>
    </g>
    <g id="line2d_9">
     <path d="M 74.81 23.011752 
L 92.81 23.011752 
" style="fill:none;stroke:#0000ff;stroke-linecap:square;stroke-width:2;"/>
    </g>
    <g id="line2d_10"/>
    <g id="text_11">
     <!-- DCG-based -->
     <g transform="translate(100.01 26.161752)scale(0.09 -0.09)">
      <defs>
       <path d="M 1259 4147 
L 1259 519 
L 2022 519 
Q 2988 519 3436 956 
Q 3884 1394 3884 2338 
Q 3884 3275 3436 3711 
Q 2988 4147 2022 4147 
L 1259 4147 
z
M 628 4666 
L 1925 4666 
Q 3281 4666 3915 4102 
Q 4550 3538 4550 2338 
Q 4550 1131 3912 565 
Q 3275 0 1925 0 
L 628 0 
L 628 4666 
z
" id="DejaVuSans-44" transform="scale(0.015625)"/>
       <path d="M 3809 666 
L 3809 1919 
L 2778 1919 
L 2778 2438 
L 4434 2438 
L 4434 434 
Q 4069 175 3628 42 
Q 3188 -91 2688 -91 
Q 1594 -91 976 548 
Q 359 1188 359 2328 
Q 359 3472 976 4111 
Q 1594 4750 2688 4750 
Q 3144 4750 3555 4637 
Q 3966 4525 4313 4306 
L 4313 3634 
Q 3963 3931 3569 4081 
Q 3175 4231 2741 4231 
Q 1884 4231 1454 3753 
Q 1025 3275 1025 2328 
Q 1025 1384 1454 906 
Q 1884 428 2741 428 
Q 3075 428 3337 486 
Q 3600 544 3809 666 
z
" id="DejaVuSans-47" transform="scale(0.015625)"/>
       <path d="M 313 2009 
L 1997 2009 
L 1997 1497 
L 313 1497 
L 313 2009 
z
" id="DejaVuSans-2d" transform="scale(0.015625)"/>
       <path d="M 3116 1747 
Q 3116 2381 2855 2742 
Q 2594 3103 2138 3103 
Q 1681 3103 1420 2742 
Q 1159 2381 1159 1747 
Q 1159 1113 1420 752 
Q 1681 391 2138 391 
Q 2594 391 2855 752 
Q 3116 1113 3116 1747 
z
M 1159 2969 
Q 1341 3281 1617 3432 
Q 1894 3584 2278 3584 
Q 2916 3584 3314 3078 
Q 3713 2572 3713 1747 
Q 3713 922 3314 415 
Q 2916 -91 2278 -91 
Q 1894 -91 1617 61 
Q 1341 213 1159 525 
L 1159 0 
L 581 0 
L 581 4863 
L 1159 4863 
L 1159 2969 
z
" id="DejaVuSans-62" transform="scale(0.015625)"/>
       <path d="M 2194 1759 
Q 1497 1759 1228 1600 
Q 959 1441 959 1056 
Q 959 750 1161 570 
Q 1363 391 1709 391 
Q 2188 391 2477 730 
Q 2766 1069 2766 1631 
L 2766 1759 
L 2194 1759 
z
M 3341 1997 
L 3341 0 
L 2766 0 
L 2766 531 
Q 2569 213 2275 61 
Q 1981 -91 1556 -91 
Q 1019 -91 701 211 
Q 384 513 384 1019 
Q 384 1609 779 1909 
Q 1175 2209 1959 2209 
L 2766 2209 
L 2766 2266 
Q 2766 2663 2505 2880 
Q 2244 3097 1772 3097 
Q 1472 3097 1187 3025 
Q 903 2953 641 2809 
L 641 3341 
Q 956 3463 1253 3523 
Q 1550 3584 1831 3584 
Q 2591 3584 2966 3190 
Q 3341 2797 3341 1997 
z
" id="DejaVuSans-61" transform="scale(0.015625)"/>
       <path d="M 3597 1894 
L 3597 1613 
L 953 1613 
Q 991 1019 1311 708 
Q 1631 397 2203 397 
Q 2534 397 2845 478 
Q 3156 559 3463 722 
L 3463 178 
Q 3153 47 2828 -22 
Q 2503 -91 2169 -91 
Q 1331 -91 842 396 
Q 353 884 353 1716 
Q 353 2575 817 3079 
Q 1281 3584 2069 3584 
Q 2775 3584 3186 3129 
Q 3597 2675 3597 1894 
z
M 3022 2063 
Q 3016 2534 2758 2815 
Q 2500 3097 2075 3097 
Q 1594 3097 1305 2825 
Q 1016 2553 972 2059 
L 3022 2063 
z
" id="DejaVuSans-65" transform="scale(0.015625)"/>
       <path d="M 2906 2969 
L 2906 4863 
L 3481 4863 
L 3481 0 
L 2906 0 
L 2906 525 
Q 2725 213 2448 61 
Q 2172 -91 1784 -91 
Q 1150 -91 751 415 
Q 353 922 353 1747 
Q 353 2572 751 3078 
Q 1150 3584 1784 3584 
Q 2172 3584 2448 3432 
Q 2725 3281 2906 2969 
z
M 947 1747 
Q 947 1113 1208 752 
Q 1469 391 1925 391 
Q 2381 391 2643 752 
Q 2906 1113 2906 1747 
Q 2906 2381 2643 2742 
Q 2381 3103 1925 3103 
Q 1469 3103 1208 2742 
Q 947 2381 947 1747 
z
" id="DejaVuSans-64" transform="scale(0.015625)"/>
      </defs>
      <use xlink:href="#DejaVuSans-44"/>
      <use x="77.001953" xlink:href="#DejaVuSans-43"/>
      <use x="146.826172" xlink:href="#DejaVuSans-47"/>
      <use x="224.316406" xlink:href="#DejaVuSans-2d"/>
      <use x="260.400391" xlink:href="#DejaVuSans-62"/>
      <use x="323.876953" xlink:href="#DejaVuSans-61"/>
      <use x="385.15625" xlink:href="#DejaVuSans-73"/>
      <use x="437.255859" xlink:href="#DejaVuSans-65"/>
      <use x="498.779297" xlink:href="#DejaVuSans-64"/>
     </g>
    </g>
   </g>
   <g id="PathCollection_1">
    <defs>
     <path d="M 0 2.12132 
C 0.562581 2.12132 1.102195 1.897805 1.5 1.5 
C 1.897805 1.102195 2.12132 0.562581 2.12132 0 
C 2.12132 -0.562581 1.897805 -1.102195 1.5 -1.5 
C 1.102195 -1.897805 0.562581 -2.12132 0 -2.12132 
C -0.562581 -2.12132 -1.102195 -1.897805 -1.5 -1.5 
C -1.897805 -1.102195 -2.12132 -0.562581 -2.12132 0 
C -2.12132 0.562581 -1.897805 1.102195 -1.5 1.5 
C -1.102195 1.897805 -0.562581 2.12132 0 2.12132 
z
" id="m45e5c166c5" style="stroke:#0000ff;"/>
    </defs>
    <g clip-path="url(#pc4340a188f)">
     <use style="fill:#0000ff;stroke:#0000ff;" x="79.265111" xlink:href="#m45e5c166c5" y="97.814572"/>
     <use style="fill:#0000ff;stroke:#0000ff;" x="88.681444" xlink:href="#m45e5c166c5" y="97.814572"/>
     <use style="fill:#0000ff;stroke:#0000ff;" x="98.097778" xlink:href="#m45e5c166c5" y="96.922274"/>
     <use style="fill:#0000ff;stroke:#0000ff;" x="107.514111" xlink:href="#m45e5c166c5" y="94.367262"/>
     <use style="fill:#0000ff;stroke:#0000ff;" x="116.930444" xlink:href="#m45e5c166c5" y="85.430486"/>
     <use style="fill:#0000ff;stroke:#0000ff;" x="126.346778" xlink:href="#m45e5c166c5" y="81.209994"/>
     <use style="fill:#0000ff;stroke:#0000ff;" x="135.763111" xlink:href="#m45e5c166c5" y="79.843492"/>
     <use style="fill:#0000ff;stroke:#0000ff;" x="145.179444" xlink:href="#m45e5c166c5" y="79.784128"/>
     <use style="fill:#0000ff;stroke:#0000ff;" x="154.595778" xlink:href="#m45e5c166c5" y="78.526851"/>
     <use style="fill:#0000ff;stroke:#0000ff;" x="164.012111" xlink:href="#m45e5c166c5" y="75.257908"/>
     <use style="fill:#0000ff;stroke:#0000ff;" x="173.428444" xlink:href="#m45e5c166c5" y="71.91508"/>
     <use style="fill:#0000ff;stroke:#0000ff;" x="182.844778" xlink:href="#m45e5c166c5" y="70.219199"/>
     <use style="fill:#0000ff;stroke:#0000ff;" x="192.261111" xlink:href="#m45e5c166c5" y="67.168716"/>
     <use style="fill:#0000ff;stroke:#0000ff;" x="201.677444" xlink:href="#m45e5c166c5" y="62.326254"/>
     <use style="fill:#0000ff;stroke:#0000ff;" x="211.093778" xlink:href="#m45e5c166c5" y="62.051515"/>
     <use style="fill:#0000ff;stroke:#0000ff;" x="220.510111" xlink:href="#m45e5c166c5" y="59.764472"/>
     <use style="fill:#0000ff;stroke:#0000ff;" x="229.926444" xlink:href="#m45e5c166c5" y="57.170137"/>
     <use style="fill:#0000ff;stroke:#0000ff;" x="239.342778" xlink:href="#m45e5c166c5" y="55.25721"/>
     <use style="fill:#0000ff;stroke:#0000ff;" x="248.759111" xlink:href="#m45e5c166c5" y="48.920608"/>
     <use style="fill:#0000ff;stroke:#0000ff;" x="258.175444" xlink:href="#m45e5c166c5" y="43.836835"/>
     <use style="fill:#0000ff;stroke:#0000ff;" x="267.591778" xlink:href="#m45e5c166c5" y="39.484668"/>
     <use style="fill:#0000ff;stroke:#0000ff;" x="277.008111" xlink:href="#m45e5c166c5" y="30.933326"/>
     <use style="fill:#0000ff;stroke:#0000ff;" x="286.424444" xlink:href="#m45e5c166c5" y="25.578008"/>
     <use style="fill:#0000ff;stroke:#0000ff;" x="295.840778" xlink:href="#m45e5c166c5" y="26.724131"/>
     <use style="fill:#0000ff;stroke:#0000ff;" x="305.257111" xlink:href="#m45e5c166c5" y="26.724131"/>
    </g>
   </g>
   <g id="line2d_11">
    <path clip-path="url(#pc4340a188f)" d="M 79.265111 97.814572 
L 94.959 97.729801 
L 96.842267 97.268615 
L 98.725533 96.790365 
L 100.6088 96.621156 
L 103.119822 96.515048 
L 104.375333 96.234386 
L 105.630844 95.748958 
L 106.886356 94.906405 
L 108.141867 93.752242 
L 111.9084 89.840443 
L 116.302689 85.967652 
L 119.441467 83.317195 
L 120.696978 82.628829 
L 122.580244 81.942595 
L 124.463511 81.55372 
L 127.602289 81.087495 
L 129.485556 81.196424 
L 130.741067 81.33025 
L 132.624333 81.106096 
L 133.879844 80.742949 
L 136.390867 79.596671 
L 137.646378 79.263568 
L 138.901889 79.143438 
L 140.785156 79.277674 
L 145.179444 79.784128 
L 150.829244 79.440936 
L 152.084756 79.264479 
L 153.968022 78.726955 
L 158.990067 77.044839 
L 161.501089 76.165487 
L 162.7566 75.813559 
L 165.267622 74.634412 
L 168.4064 73.049711 
L 169.661911 72.667778 
L 172.172933 72.21188 
L 173.428444 71.91508 
L 175.939467 71.189967 
L 177.822733 70.857309 
L 182.844778 70.219199 
L 184.100289 69.818417 
L 187.239067 68.642728 
L 191.0056 67.687488 
L 192.888867 66.868362 
L 194.772133 65.75864 
L 197.910911 63.646002 
L 199.166422 62.937924 
L 200.421933 62.48285 
L 201.677444 62.326254 
L 202.932956 62.43502 
L 206.699489 63.081098 
L 207.327244 63.041361 
L 220.510111 59.764472 
L 224.276644 59.385637 
L 225.532156 59.225327 
L 226.787667 58.839748 
L 228.670933 57.839487 
L 230.5542 56.894269 
L 231.809711 56.580552 
L 237.459511 55.764309 
L 239.342778 55.25721 
L 241.226044 54.503721 
L 244.364822 53.036948 
L 245.620333 52.158812 
L 247.5036 50.244433 
L 249.386867 48.312196 
L 250.642378 47.271523 
L 252.525644 46.104189 
L 254.408911 45.177206 
L 256.292178 44.449142 
L 261.941978 42.514696 
L 265.080756 41.025859 
L 267.591778 39.484668 
L 268.847289 38.419278 
L 270.730556 36.295432 
L 272.613822 34.20034 
L 273.869333 33.110085 
L 276.380356 31.361275 
L 278.891378 29.591879 
L 282.657911 26.469565 
L 283.913422 25.868461 
L 285.168933 25.583483 
L 286.424444 25.578008 
L 288.935467 25.925778 
L 293.957511 26.704596 
L 297.724044 26.724131 
L 305.257111 26.724131 
L 305.257111 26.724131 
" style="fill:none;stroke:#0000ff;stroke-linecap:square;stroke-width:2;"/>
   </g>
  </g>
  <g id="axes_2">
   <g id="patch_8">
    <path d="M 66.71 244.6 
L 349.2 244.6 
L 349.2 149.682488 
L 66.71 149.682488 
z
" style="fill:#ffffff;"/>
   </g>
   <g id="PathCollection_2">
    <defs>
     <path d="M -2.12132 2.12132 
L 2.12132 2.12132 
L 2.12132 -2.12132 
L -2.12132 -2.12132 
z
" id="mf7583be54f" style="stroke:#800080;"/>
    </defs>
    <g clip-path="url(#p647a50a1b0)">
     <use style="fill:#800080;stroke:#800080;" x="79.265111" xlink:href="#mf7583be54f" y="239.566496"/>
     <use style="fill:#800080;stroke:#800080;" x="88.681444" xlink:href="#mf7583be54f" y="239.522986"/>
     <use style="fill:#800080;stroke:#800080;" x="98.097778" xlink:href="#mf7583be54f" y="239.326614"/>
     <use style="fill:#800080;stroke:#800080;" x="107.514111" xlink:href="#mf7583be54f" y="238.923559"/>
     <use style="fill:#800080;stroke:#800080;" x="116.930444" xlink:href="#mf7583be54f" y="238.339746"/>
     <use style="fill:#800080;stroke:#800080;" x="126.346778" xlink:href="#mf7583be54f" y="237.496972"/>
     <use style="fill:#800080;stroke:#800080;" x="135.763111" xlink:href="#mf7583be54f" y="236.471812"/>
     <use style="fill:#800080;stroke:#800080;" x="145.179444" xlink:href="#mf7583be54f" y="235.384298"/>
     <use style="fill:#800080;stroke:#800080;" x="154.595778" xlink:href="#mf7583be54f" y="234.216578"/>
     <use style="fill:#800080;stroke:#800080;" x="164.012111" xlink:href="#mf7583be54f" y="232.703711"/>
     <use style="fill:#800080;stroke:#800080;" x="173.428444" xlink:href="#mf7583be54f" y="231.382605"/>
     <use style="fill:#800080;stroke:#800080;" x="182.844778" xlink:href="#mf7583be54f" y="230.031219"/>
     <use style="fill:#800080;stroke:#800080;" x="192.261111" xlink:href="#mf7583be54f" y="227.993506"/>
     <use style="fill:#800080;stroke:#800080;" x="201.677444" xlink:href="#mf7583be54f" y="224.713134"/>
     <use style="fill:#800080;stroke:#800080;" x="211.093778" xlink:href="#mf7583be54f" y="220.024436"/>
     <use style="fill:#800080;stroke:#800080;" x="220.510111" xlink:href="#mf7583be54f" y="214.715901"/>
     <use style="fill:#800080;stroke:#800080;" x="229.926444" xlink:href="#mf7583be54f" y="208.982808"/>
     <use style="fill:#800080;stroke:#800080;" x="239.342778" xlink:href="#mf7583be54f" y="203.032737"/>
     <use style="fill:#800080;stroke:#800080;" x="248.759111" xlink:href="#mf7583be54f" y="197.260539"/>
     <use style="fill:#800080;stroke:#800080;" x="258.175444" xlink:href="#mf7583be54f" y="191.69458"/>
     <use style="fill:#800080;stroke:#800080;" x="267.591778" xlink:href="#mf7583be54f" y="185.325574"/>
     <use style="fill:#800080;stroke:#800080;" x="277.008111" xlink:href="#mf7583be54f" y="178.149685"/>
     <use style="fill:#800080;stroke:#800080;" x="286.424444" xlink:href="#mf7583be54f" y="171.878697"/>
     <use style="fill:#800080;stroke:#800080;" x="295.840778" xlink:href="#mf7583be54f" y="166.928871"/>
     <use style="fill:#800080;stroke:#800080;" x="305.257111" xlink:href="#mf7583be54f" y="162.854549"/>
     <use style="fill:#800080;stroke:#800080;" x="314.673444" xlink:href="#mf7583be54f" y="159.548689"/>
     <use style="fill:#800080;stroke:#800080;" x="324.089778" xlink:href="#mf7583be54f" y="157.987385"/>
     <use style="fill:#800080;stroke:#800080;" x="333.506111" xlink:href="#mf7583be54f" y="157.738551"/>
    </g>
   </g>
   <g id="matplotlib.axis_3">
    <g id="xtick_6">
     <g id="line2d_12">
      <g>
       <use style="stroke:#000000;stroke-width:0.8;" x="79.265111" xlink:href="#m9f0b20a6c0" y="244.6"/>
      </g>
     </g>
     <g id="text_12">
      <!-- 0 -->
      <g transform="translate(76.083861 259.198438)scale(0.1 -0.1)">
       <use xlink:href="#DejaVuSans-30"/>
      </g>
     </g>
    </g>
    <g id="xtick_7">
     <g id="line2d_13">
      <g>
       <use style="stroke:#000000;stroke-width:0.8;" x="142.040667" xlink:href="#m9f0b20a6c0" y="244.6"/>
      </g>
     </g>
     <g id="text_13">
      <!-- 100 -->
      <g transform="translate(132.496917 259.198438)scale(0.1 -0.1)">
       <use xlink:href="#DejaVuSans-31"/>
       <use x="63.623047" xlink:href="#DejaVuSans-30"/>
       <use x="127.246094" xlink:href="#DejaVuSans-30"/>
      </g>
     </g>
    </g>
    <g id="xtick_8">
     <g id="line2d_14">
      <g>
       <use style="stroke:#000000;stroke-width:0.8;" x="204.816222" xlink:href="#m9f0b20a6c0" y="244.6"/>
      </g>
     </g>
     <g id="text_14">
      <!-- 200 -->
      <g transform="translate(195.272472 259.198438)scale(0.1 -0.1)">
       <use xlink:href="#DejaVuSans-32"/>
       <use x="63.623047" xlink:href="#DejaVuSans-30"/>
       <use x="127.246094" xlink:href="#DejaVuSans-30"/>
      </g>
     </g>
    </g>
    <g id="xtick_9">
     <g id="line2d_15">
      <g>
       <use style="stroke:#000000;stroke-width:0.8;" x="267.591778" xlink:href="#m9f0b20a6c0" y="244.6"/>
      </g>
     </g>
     <g id="text_15">
      <!-- 300 -->
      <g transform="translate(258.048028 259.198438)scale(0.1 -0.1)">
       <use xlink:href="#DejaVuSans-33"/>
       <use x="63.623047" xlink:href="#DejaVuSans-30"/>
       <use x="127.246094" xlink:href="#DejaVuSans-30"/>
      </g>
     </g>
    </g>
    <g id="xtick_10">
     <g id="line2d_16">
      <g>
       <use style="stroke:#000000;stroke-width:0.8;" x="330.367333" xlink:href="#m9f0b20a6c0" y="244.6"/>
      </g>
     </g>
     <g id="text_16">
      <!-- 400 -->
      <g transform="translate(320.823583 259.198438)scale(0.1 -0.1)">
       <use xlink:href="#DejaVuSans-34"/>
       <use x="63.623047" xlink:href="#DejaVuSans-30"/>
       <use x="127.246094" xlink:href="#DejaVuSans-30"/>
      </g>
     </g>
    </g>
    <g id="text_17">
     <!-- $t~\mathrm{(s)}$ -->
     <g transform="translate(197.855 272.876562)scale(0.1 -0.1)">
      <use transform="translate(0 0.125)" xlink:href="#DejaVuSans-Oblique-74"/>
      <use transform="translate(71.679363 0.125)" xlink:href="#DejaVuSans-28"/>
      <use transform="translate(110.693035 0.125)" xlink:href="#DejaVuSans-73"/>
      <use transform="translate(162.792644 0.125)" xlink:href="#DejaVuSans-29"/>
     </g>
    </g>
   </g>
   <g id="matplotlib.axis_4">
    <g id="ytick_4">
     <g id="line2d_17">
      <g>
       <use style="stroke:#000000;stroke-width:0.8;" x="66.71" xlink:href="#m776bd0d6a5" y="239.566496"/>
      </g>
     </g>
     <g id="text_18">
      <!-- 0 -->
      <g transform="translate(53.3475 243.365714)scale(0.1 -0.1)">
       <use xlink:href="#DejaVuSans-30"/>
      </g>
     </g>
    </g>
    <g id="ytick_5">
     <g id="line2d_18">
      <g>
       <use style="stroke:#000000;stroke-width:0.8;" x="66.71" xlink:href="#m776bd0d6a5" y="210.803613"/>
      </g>
     </g>
     <g id="text_19">
      <!-- 4000 -->
      <g transform="translate(34.26 214.602832)scale(0.1 -0.1)">
       <use xlink:href="#DejaVuSans-34"/>
       <use x="63.623047" xlink:href="#DejaVuSans-30"/>
       <use x="127.246094" xlink:href="#DejaVuSans-30"/>
       <use x="190.869141" xlink:href="#DejaVuSans-30"/>
      </g>
     </g>
    </g>
    <g id="ytick_6">
     <g id="line2d_19">
      <g>
       <use style="stroke:#000000;stroke-width:0.8;" x="66.71" xlink:href="#m776bd0d6a5" y="182.040731"/>
      </g>
     </g>
     <g id="text_20">
      <!-- 8000 -->
      <g transform="translate(34.26 185.83995)scale(0.1 -0.1)">
       <defs>
        <path d="M 2034 2216 
Q 1584 2216 1326 1975 
Q 1069 1734 1069 1313 
Q 1069 891 1326 650 
Q 1584 409 2034 409 
Q 2484 409 2743 651 
Q 3003 894 3003 1313 
Q 3003 1734 2745 1975 
Q 2488 2216 2034 2216 
z
M 1403 2484 
Q 997 2584 770 2862 
Q 544 3141 544 3541 
Q 544 4100 942 4425 
Q 1341 4750 2034 4750 
Q 2731 4750 3128 4425 
Q 3525 4100 3525 3541 
Q 3525 3141 3298 2862 
Q 3072 2584 2669 2484 
Q 3125 2378 3379 2068 
Q 3634 1759 3634 1313 
Q 3634 634 3220 271 
Q 2806 -91 2034 -91 
Q 1263 -91 848 271 
Q 434 634 434 1313 
Q 434 1759 690 2068 
Q 947 2378 1403 2484 
z
M 1172 3481 
Q 1172 3119 1398 2916 
Q 1625 2713 2034 2713 
Q 2441 2713 2670 2916 
Q 2900 3119 2900 3481 
Q 2900 3844 2670 4047 
Q 2441 4250 2034 4250 
Q 1625 4250 1398 4047 
Q 1172 3844 1172 3481 
z
" id="DejaVuSans-38" transform="scale(0.015625)"/>
       </defs>
       <use xlink:href="#DejaVuSans-38"/>
       <use x="63.623047" xlink:href="#DejaVuSans-30"/>
       <use x="127.246094" xlink:href="#DejaVuSans-30"/>
       <use x="190.869141" xlink:href="#DejaVuSans-30"/>
      </g>
     </g>
    </g>
    <g id="ytick_7">
     <g id="line2d_20">
      <g>
       <use style="stroke:#000000;stroke-width:0.8;" x="66.71" xlink:href="#m776bd0d6a5" y="153.277848"/>
      </g>
     </g>
     <g id="text_21">
      <!-- 12000 -->
      <g transform="translate(27.8975 157.077067)scale(0.1 -0.1)">
       <use xlink:href="#DejaVuSans-31"/>
       <use x="63.623047" xlink:href="#DejaVuSans-32"/>
       <use x="127.246094" xlink:href="#DejaVuSans-30"/>
       <use x="190.869141" xlink:href="#DejaVuSans-30"/>
       <use x="254.492188" xlink:href="#DejaVuSans-30"/>
      </g>
     </g>
    </g>
    <g id="text_22">
     <!-- Cost$:~J~\mathrm{(s)}$ -->
     <g transform="translate(21.7975 223.141244)rotate(-90)scale(0.1 -0.1)">
      <use transform="translate(0 0.125)" xlink:href="#DejaVuSans-43"/>
      <use transform="translate(69.824219 0.125)" xlink:href="#DejaVuSans-6f"/>
      <use transform="translate(131.005859 0.125)" xlink:href="#DejaVuSans-73"/>
      <use transform="translate(183.105469 0.125)" xlink:href="#DejaVuSans-74"/>
      <use transform="translate(241.796875 0.125)" xlink:href="#DejaVuSans-3a"/>
      <use transform="translate(327.441082 0.125)" xlink:href="#DejaVuSans-Oblique-4a"/>
      <use transform="translate(389.403647 0.125)" xlink:href="#DejaVuSans-28"/>
      <use transform="translate(428.417319 0.125)" xlink:href="#DejaVuSans-73"/>
      <use transform="translate(480.516929 0.125)" xlink:href="#DejaVuSans-29"/>
     </g>
    </g>
   </g>
   <g id="line2d_21">
    <path clip-path="url(#p647a50a1b0)" d="M 79.265111 239.566496 
L 92.447978 239.464255 
L 102.492067 239.165476 
L 112.536156 238.636133 
L 121.324733 237.9819 
L 128.230044 237.303645 
L 138.901889 236.099443 
L 157.1068 233.834342 
L 173.428444 231.382605 
L 181.589267 230.244271 
L 187.866822 229.099325 
L 191.0056 228.33936 
L 195.399889 227.065166 
L 199.166422 225.751243 
L 202.932956 224.152948 
L 207.327244 221.991741 
L 215.488067 217.649257 
L 221.137867 214.335528 
L 236.204 205.03847 
L 247.5036 198.002553 
L 261.314222 189.734055 
L 265.080756 187.142347 
L 269.475044 183.91961 
L 280.774644 175.457127 
L 285.168933 172.63268 
L 289.563222 170.105752 
L 294.585267 167.535383 
L 299.607311 165.231851 
L 310.279156 160.880459 
L 314.045689 159.717461 
L 317.184467 158.948496 
L 320.323244 158.40066 
L 324.089778 157.987385 
L 328.484067 157.786847 
L 336.017133 157.738551 
L 336.644889 157.738551 
L 336.644889 157.738551 
" style="fill:none;stroke:#800080;stroke-linecap:square;stroke-width:2;"/>
   </g>
   <g id="patch_9">
    <path d="M 66.71 244.6 
L 66.71 149.682488 
" style="fill:none;stroke:#000000;stroke-linecap:square;stroke-linejoin:miter;stroke-width:0.8;"/>
   </g>
   <g id="patch_10">
    <path d="M 349.2 244.6 
L 349.2 149.682488 
" style="fill:none;stroke:#000000;stroke-linecap:square;stroke-linejoin:miter;stroke-width:0.8;"/>
   </g>
   <g id="patch_11">
    <path d="M 66.71 244.6 
L 349.2 244.6 
" style="fill:none;stroke:#000000;stroke-linecap:square;stroke-linejoin:miter;stroke-width:0.8;"/>
   </g>
   <g id="patch_12">
    <path d="M 66.71 149.682488 
L 349.2 149.682488 
" style="fill:none;stroke:#000000;stroke-linecap:square;stroke-linejoin:miter;stroke-width:0.8;"/>
   </g>
   <g id="legend_2">
    <g id="patch_13">
     <path d="M 73.01 170.092801 
L 163.488125 170.092801 
Q 165.288125 170.092801 165.288125 168.292801 
L 165.288125 155.982488 
Q 165.288125 154.182488 163.488125 154.182488 
L 73.01 154.182488 
Q 71.21 154.182488 71.21 155.982488 
L 71.21 168.292801 
Q 71.21 170.092801 73.01 170.092801 
z
" style="fill:#ffffff;opacity:0.8;stroke:#cccccc;stroke-linejoin:miter;"/>
    </g>
    <g id="line2d_22">
     <path d="M 74.81 161.471082 
L 92.81 161.471082 
" style="fill:none;stroke:#800080;stroke-linecap:square;stroke-width:2;"/>
    </g>
    <g id="line2d_23"/>
    <g id="text_23">
     <!-- SUMO default -->
     <g transform="translate(100.01 164.621082)scale(0.09 -0.09)">
      <defs>
       <path d="M 3425 4513 
L 3425 3897 
Q 3066 4069 2747 4153 
Q 2428 4238 2131 4238 
Q 1616 4238 1336 4038 
Q 1056 3838 1056 3469 
Q 1056 3159 1242 3001 
Q 1428 2844 1947 2747 
L 2328 2669 
Q 3034 2534 3370 2195 
Q 3706 1856 3706 1288 
Q 3706 609 3251 259 
Q 2797 -91 1919 -91 
Q 1588 -91 1214 -16 
Q 841 59 441 206 
L 441 856 
Q 825 641 1194 531 
Q 1563 422 1919 422 
Q 2459 422 2753 634 
Q 3047 847 3047 1241 
Q 3047 1584 2836 1778 
Q 2625 1972 2144 2069 
L 1759 2144 
Q 1053 2284 737 2584 
Q 422 2884 422 3419 
Q 422 4038 858 4394 
Q 1294 4750 2059 4750 
Q 2388 4750 2728 4690 
Q 3069 4631 3425 4513 
z
" id="DejaVuSans-53" transform="scale(0.015625)"/>
       <path d="M 556 4666 
L 1191 4666 
L 1191 1831 
Q 1191 1081 1462 751 
Q 1734 422 2344 422 
Q 2950 422 3222 751 
Q 3494 1081 3494 1831 
L 3494 4666 
L 4128 4666 
L 4128 1753 
Q 4128 841 3676 375 
Q 3225 -91 2344 -91 
Q 1459 -91 1007 375 
Q 556 841 556 1753 
L 556 4666 
z
" id="DejaVuSans-55" transform="scale(0.015625)"/>
       <path d="M 628 4666 
L 1569 4666 
L 2759 1491 
L 3956 4666 
L 4897 4666 
L 4897 0 
L 4281 0 
L 4281 4097 
L 3078 897 
L 2444 897 
L 1241 4097 
L 1241 0 
L 628 0 
L 628 4666 
z
" id="DejaVuSans-4d" transform="scale(0.015625)"/>
       <path d="M 2522 4238 
Q 1834 4238 1429 3725 
Q 1025 3213 1025 2328 
Q 1025 1447 1429 934 
Q 1834 422 2522 422 
Q 3209 422 3611 934 
Q 4013 1447 4013 2328 
Q 4013 3213 3611 3725 
Q 3209 4238 2522 4238 
z
M 2522 4750 
Q 3503 4750 4090 4092 
Q 4678 3434 4678 2328 
Q 4678 1225 4090 567 
Q 3503 -91 2522 -91 
Q 1538 -91 948 565 
Q 359 1222 359 2328 
Q 359 3434 948 4092 
Q 1538 4750 2522 4750 
z
" id="DejaVuSans-4f" transform="scale(0.015625)"/>
       <path id="DejaVuSans-20" transform="scale(0.015625)"/>
       <path d="M 2375 4863 
L 2375 4384 
L 1825 4384 
Q 1516 4384 1395 4259 
Q 1275 4134 1275 3809 
L 1275 3500 
L 2222 3500 
L 2222 3053 
L 1275 3053 
L 1275 0 
L 697 0 
L 697 3053 
L 147 3053 
L 147 3500 
L 697 3500 
L 697 3744 
Q 697 4328 969 4595 
Q 1241 4863 1831 4863 
L 2375 4863 
z
" id="DejaVuSans-66" transform="scale(0.015625)"/>
       <path d="M 544 1381 
L 544 3500 
L 1119 3500 
L 1119 1403 
Q 1119 906 1312 657 
Q 1506 409 1894 409 
Q 2359 409 2629 706 
Q 2900 1003 2900 1516 
L 2900 3500 
L 3475 3500 
L 3475 0 
L 2900 0 
L 2900 538 
Q 2691 219 2414 64 
Q 2138 -91 1772 -91 
Q 1169 -91 856 284 
Q 544 659 544 1381 
z
M 1991 3584 
L 1991 3584 
z
" id="DejaVuSans-75" transform="scale(0.015625)"/>
       <path d="M 603 4863 
L 1178 4863 
L 1178 0 
L 603 0 
L 603 4863 
z
" id="DejaVuSans-6c" transform="scale(0.015625)"/>
      </defs>
      <use xlink:href="#DejaVuSans-53"/>
      <use x="63.476562" xlink:href="#DejaVuSans-55"/>
      <use x="136.669922" xlink:href="#DejaVuSans-4d"/>
      <use x="222.949219" xlink:href="#DejaVuSans-4f"/>
      <use x="301.660156" xlink:href="#DejaVuSans-20"/>
      <use x="333.447266" xlink:href="#DejaVuSans-64"/>
      <use x="396.923828" xlink:href="#DejaVuSans-65"/>
      <use x="458.447266" xlink:href="#DejaVuSans-66"/>
      <use x="493.652344" xlink:href="#DejaVuSans-61"/>
      <use x="554.931641" xlink:href="#DejaVuSans-75"/>
      <use x="618.310547" xlink:href="#DejaVuSans-6c"/>
      <use x="646.09375" xlink:href="#DejaVuSans-74"/>
     </g>
    </g>
   </g>
  </g>
 </g>
 <defs>
  <clipPath id="pc4340a188f">
   <rect height="94.917512" width="282.49" x="66.71" y="11.223158"/>
  </clipPath>
  <clipPath id="p647a50a1b0">
   <rect height="94.917512" width="282.49" x="66.71" y="149.682488"/>
  </clipPath>
 </defs>
</svg>
