<?xml version="1.0" encoding="utf-8" standalone="no"?>
<!DOCTYPE svg PUBLIC "-//W3C//DTD SVG 1.1//EN"
  "http://www.w3.org/Graphics/SVG/1.1/DTD/svg11.dtd">
<svg height="324pt" version="1.1" viewBox="0 0 396 324" width="396pt" xmlns="http://www.w3.org/2000/svg" xmlns:xlink="http://www.w3.org/1999/xlink">
 <metadata>
  <rdf:RDF xmlns:cc="http://creativecommons.org/ns#" xmlns:dc="http://purl.org/dc/elements/1.1/" xmlns:rdf="http://www.w3.org/1999/02/22-rdf-syntax-ns#">
   <cc:Work>
    <dc:type rdf:resource="http://purl.org/dc/dcmitype/StillImage"/>
    <dc:date>2023-06-15T21:10:27.638406</dc:date>
    <dc:format>image/svg+xml</dc:format>
    <dc:creator>
     <cc:Agent>
      <dc:title>Matplotlib v3.4.3, https://matplotlib.org/</dc:title>
     </cc:Agent>
    </dc:creator>
   </cc:Work>
  </rdf:RDF>
 </metadata>
 <defs>
  <style type="text/css">*{stroke-linecap:butt;stroke-linejoin:round;}</style>
 </defs>
 <g id="figure_1">
  <g id="patch_1">
   <path d="M 0 324 
L 396 324 
L 396 0 
L 0 0 
z
" style="fill:#ffffff;"/>
  </g>
  <g id="axes_1">
   <g id="patch_2">
    <path d="M 56.18 121.75 
L 196.344 121.75 
L 196.344 10.8 
L 56.18 10.8 
z
" style="fill:#ffffff;"/>
   </g>
   <g id="matplotlib.axis_1">
    <g id="xtick_1">
     <g id="line2d_1">
      <defs>
       <path d="M 0 0 
L 0 3.5 
" id="m762a480618" style="stroke:#000000;stroke-width:0.8;"/>
      </defs>
      <g>
       <use style="stroke:#000000;stroke-width:0.8;" x="62.163791" xlink:href="#m762a480618" y="121.75"/>
      </g>
     </g>
     <g id="text_1">
      <!-- 0 -->
      <g transform="translate(58.664416 137.108281)scale(0.11 -0.11)">
       <defs>
        <path d="M 2034 4250 
Q 1547 4250 1301 3770 
Q 1056 3291 1056 2328 
Q 1056 1369 1301 889 
Q 1547 409 2034 409 
Q 2525 409 2770 889 
Q 3016 1369 3016 2328 
Q 3016 3291 2770 3770 
Q 2525 4250 2034 4250 
z
M 2034 4750 
Q 2819 4750 3233 4129 
Q 3647 3509 3647 2328 
Q 3647 1150 3233 529 
Q 2819 -91 2034 -91 
Q 1250 -91 836 529 
Q 422 1150 422 2328 
Q 422 3509 836 4129 
Q 1250 4750 2034 4750 
z
" id="DejaVuSans-30" transform="scale(0.015625)"/>
       </defs>
       <use xlink:href="#DejaVuSans-30"/>
      </g>
     </g>
    </g>
    <g id="xtick_2">
     <g id="line2d_2">
      <g>
       <use style="stroke:#000000;stroke-width:0.8;" x="100.893826" xlink:href="#m762a480618" y="121.75"/>
      </g>
     </g>
     <g id="text_2">
      <!-- 10 -->
      <g transform="translate(93.895076 137.108281)scale(0.11 -0.11)">
       <defs>
        <path d="M 794 531 
L 1825 531 
L 1825 4091 
L 703 3866 
L 703 4441 
L 1819 4666 
L 2450 4666 
L 2450 531 
L 3481 531 
L 3481 0 
L 794 0 
L 794 531 
z
" id="DejaVuSans-31" transform="scale(0.015625)"/>
       </defs>
       <use xlink:href="#DejaVuSans-31"/>
       <use x="63.623047" xlink:href="#DejaVuSans-30"/>
      </g>
     </g>
    </g>
    <g id="xtick_3">
     <g id="line2d_3">
      <g>
       <use style="stroke:#000000;stroke-width:0.8;" x="139.623862" xlink:href="#m762a480618" y="121.75"/>
      </g>
     </g>
     <g id="text_3">
      <!-- 20 -->
      <g transform="translate(132.625112 137.108281)scale(0.11 -0.11)">
       <defs>
        <path d="M 1228 531 
L 3431 531 
L 3431 0 
L 469 0 
L 469 531 
Q 828 903 1448 1529 
Q 2069 2156 2228 2338 
Q 2531 2678 2651 2914 
Q 2772 3150 2772 3378 
Q 2772 3750 2511 3984 
Q 2250 4219 1831 4219 
Q 1534 4219 1204 4116 
Q 875 4013 500 3803 
L 500 4441 
Q 881 4594 1212 4672 
Q 1544 4750 1819 4750 
Q 2544 4750 2975 4387 
Q 3406 4025 3406 3419 
Q 3406 3131 3298 2873 
Q 3191 2616 2906 2266 
Q 2828 2175 2409 1742 
Q 1991 1309 1228 531 
z
" id="DejaVuSans-32" transform="scale(0.015625)"/>
       </defs>
       <use xlink:href="#DejaVuSans-32"/>
       <use x="63.623047" xlink:href="#DejaVuSans-30"/>
      </g>
     </g>
    </g>
    <g id="xtick_4">
     <g id="line2d_4">
      <g>
       <use style="stroke:#000000;stroke-width:0.8;" x="178.353898" xlink:href="#m762a480618" y="121.75"/>
      </g>
     </g>
     <g id="text_4">
      <!-- 30 -->
      <g transform="translate(171.355148 137.108281)scale(0.11 -0.11)">
       <defs>
        <path d="M 2597 2516 
Q 3050 2419 3304 2112 
Q 3559 1806 3559 1356 
Q 3559 666 3084 287 
Q 2609 -91 1734 -91 
Q 1441 -91 1130 -33 
Q 819 25 488 141 
L 488 750 
Q 750 597 1062 519 
Q 1375 441 1716 441 
Q 2309 441 2620 675 
Q 2931 909 2931 1356 
Q 2931 1769 2642 2001 
Q 2353 2234 1838 2234 
L 1294 2234 
L 1294 2753 
L 1863 2753 
Q 2328 2753 2575 2939 
Q 2822 3125 2822 3475 
Q 2822 3834 2567 4026 
Q 2313 4219 1838 4219 
Q 1578 4219 1281 4162 
Q 984 4106 628 3988 
L 628 4550 
Q 988 4650 1302 4700 
Q 1616 4750 1894 4750 
Q 2613 4750 3031 4423 
Q 3450 4097 3450 3541 
Q 3450 3153 3228 2886 
Q 3006 2619 2597 2516 
z
" id="DejaVuSans-33" transform="scale(0.015625)"/>
       </defs>
       <use xlink:href="#DejaVuSans-33"/>
       <use x="63.623047" xlink:href="#DejaVuSans-30"/>
      </g>
     </g>
    </g>
    <g id="text_5">
     <!-- $t~\mathrm{(s)}$ -->
     <g transform="translate(114.142 152.514062)scale(0.12 -0.12)">
      <defs>
       <path d="M 2706 3500 
L 2619 3053 
L 1472 3053 
L 1100 1153 
Q 1081 1047 1072 975 
Q 1063 903 1063 863 
Q 1063 663 1183 572 
Q 1303 481 1569 481 
L 2150 481 
L 2053 0 
L 1503 0 
Q 991 0 739 200 
Q 488 400 488 806 
Q 488 878 497 964 
Q 506 1050 525 1153 
L 897 3053 
L 409 3053 
L 500 3500 
L 978 3500 
L 1172 4494 
L 1747 4494 
L 1556 3500 
L 2706 3500 
z
" id="DejaVuSans-Oblique-74" transform="scale(0.015625)"/>
       <path d="M 1984 4856 
Q 1566 4138 1362 3434 
Q 1159 2731 1159 2009 
Q 1159 1288 1364 580 
Q 1569 -128 1984 -844 
L 1484 -844 
Q 1016 -109 783 600 
Q 550 1309 550 2009 
Q 550 2706 781 3412 
Q 1013 4119 1484 4856 
L 1984 4856 
z
" id="DejaVuSans-28" transform="scale(0.015625)"/>
       <path d="M 2834 3397 
L 2834 2853 
Q 2591 2978 2328 3040 
Q 2066 3103 1784 3103 
Q 1356 3103 1142 2972 
Q 928 2841 928 2578 
Q 928 2378 1081 2264 
Q 1234 2150 1697 2047 
L 1894 2003 
Q 2506 1872 2764 1633 
Q 3022 1394 3022 966 
Q 3022 478 2636 193 
Q 2250 -91 1575 -91 
Q 1294 -91 989 -36 
Q 684 19 347 128 
L 347 722 
Q 666 556 975 473 
Q 1284 391 1588 391 
Q 1994 391 2212 530 
Q 2431 669 2431 922 
Q 2431 1156 2273 1281 
Q 2116 1406 1581 1522 
L 1381 1569 
Q 847 1681 609 1914 
Q 372 2147 372 2553 
Q 372 3047 722 3315 
Q 1072 3584 1716 3584 
Q 2034 3584 2315 3537 
Q 2597 3491 2834 3397 
z
" id="DejaVuSans-73" transform="scale(0.015625)"/>
       <path d="M 513 4856 
L 1013 4856 
Q 1481 4119 1714 3412 
Q 1947 2706 1947 2009 
Q 1947 1309 1714 600 
Q 1481 -109 1013 -844 
L 513 -844 
Q 928 -128 1133 580 
Q 1338 1288 1338 2009 
Q 1338 2731 1133 3434 
Q 928 4138 513 4856 
z
" id="DejaVuSans-29" transform="scale(0.015625)"/>
      </defs>
      <use transform="translate(0 0.125)" xlink:href="#DejaVuSans-Oblique-74"/>
      <use transform="translate(71.679363 0.125)" xlink:href="#DejaVuSans-28"/>
      <use transform="translate(110.693035 0.125)" xlink:href="#DejaVuSans-73"/>
      <use transform="translate(162.792644 0.125)" xlink:href="#DejaVuSans-29"/>
     </g>
    </g>
   </g>
   <g id="matplotlib.axis_2">
    <g id="ytick_1">
     <g id="line2d_5">
      <defs>
       <path d="M 0 0 
L -3.5 0 
" id="mca0d693472" style="stroke:#000000;stroke-width:0.8;"/>
      </defs>
      <g>
       <use style="stroke:#000000;stroke-width:0.8;" x="56.18" xlink:href="#mca0d693472" y="93.783154"/>
      </g>
     </g>
     <g id="text_6">
      <!-- 0 -->
      <g transform="translate(42.18125 97.962294)scale(0.11 -0.11)">
       <use xlink:href="#DejaVuSans-30"/>
      </g>
     </g>
    </g>
    <g id="ytick_2">
     <g id="line2d_6">
      <g>
       <use style="stroke:#000000;stroke-width:0.8;" x="56.18" xlink:href="#mca0d693472" y="54.928892"/>
      </g>
     </g>
     <g id="text_7">
      <!-- 100 -->
      <g transform="translate(28.18375 59.108033)scale(0.11 -0.11)">
       <use xlink:href="#DejaVuSans-31"/>
       <use x="63.623047" xlink:href="#DejaVuSans-30"/>
       <use x="127.246094" xlink:href="#DejaVuSans-30"/>
      </g>
     </g>
    </g>
    <g id="ytick_3">
     <g id="line2d_7">
      <g>
       <use style="stroke:#000000;stroke-width:0.8;" x="56.18" xlink:href="#mca0d693472" y="16.074631"/>
      </g>
     </g>
     <g id="text_8">
      <!-- 200 -->
      <g transform="translate(28.18375 20.253772)scale(0.11 -0.11)">
       <use xlink:href="#DejaVuSans-32"/>
       <use x="63.623047" xlink:href="#DejaVuSans-30"/>
       <use x="127.246094" xlink:href="#DejaVuSans-30"/>
      </g>
     </g>
    </g>
    <g id="text_9">
     <!-- $p_k~\mathrm{(m)}$ -->
     <g transform="translate(21.66375 85.175)rotate(-90)scale(0.12 -0.12)">
      <defs>
       <path d="M 3175 2156 
Q 3175 2616 2975 2859 
Q 2775 3103 2400 3103 
Q 2144 3103 1911 2972 
Q 1678 2841 1497 2591 
Q 1319 2344 1212 1994 
Q 1106 1644 1106 1300 
Q 1106 863 1306 627 
Q 1506 391 1875 391 
Q 2147 391 2380 519 
Q 2613 647 2778 891 
Q 2956 1147 3065 1494 
Q 3175 1841 3175 2156 
z
M 1394 2969 
Q 1625 3272 1939 3428 
Q 2253 3584 2638 3584 
Q 3175 3584 3472 3232 
Q 3769 2881 3769 2247 
Q 3769 1728 3584 1258 
Q 3400 788 3053 416 
Q 2822 169 2531 39 
Q 2241 -91 1919 -91 
Q 1547 -91 1294 64 
Q 1041 219 916 525 
L 556 -1331 
L -19 -1331 
L 922 3500 
L 1497 3500 
L 1394 2969 
z
" id="DejaVuSans-Oblique-70" transform="scale(0.015625)"/>
       <path d="M 1172 4863 
L 1747 4863 
L 1197 2028 
L 3169 3500 
L 3916 3500 
L 1716 1825 
L 3322 0 
L 2625 0 
L 1131 1709 
L 800 0 
L 225 0 
L 1172 4863 
z
" id="DejaVuSans-Oblique-6b" transform="scale(0.015625)"/>
       <path d="M 3328 2828 
Q 3544 3216 3844 3400 
Q 4144 3584 4550 3584 
Q 5097 3584 5394 3201 
Q 5691 2819 5691 2113 
L 5691 0 
L 5113 0 
L 5113 2094 
Q 5113 2597 4934 2840 
Q 4756 3084 4391 3084 
Q 3944 3084 3684 2787 
Q 3425 2491 3425 1978 
L 3425 0 
L 2847 0 
L 2847 2094 
Q 2847 2600 2669 2842 
Q 2491 3084 2119 3084 
Q 1678 3084 1418 2786 
Q 1159 2488 1159 1978 
L 1159 0 
L 581 0 
L 581 3500 
L 1159 3500 
L 1159 2956 
Q 1356 3278 1631 3431 
Q 1906 3584 2284 3584 
Q 2666 3584 2933 3390 
Q 3200 3197 3328 2828 
z
" id="DejaVuSans-6d" transform="scale(0.015625)"/>
      </defs>
      <use transform="translate(0 0.125)" xlink:href="#DejaVuSans-Oblique-70"/>
      <use transform="translate(63.476562 -16.28125)scale(0.7)" xlink:href="#DejaVuSans-Oblique-6b"/>
      <use transform="translate(139.218425 0.125)" xlink:href="#DejaVuSans-28"/>
      <use transform="translate(178.232097 0.125)" xlink:href="#DejaVuSans-6d"/>
      <use transform="translate(275.644207 0.125)" xlink:href="#DejaVuSans-29"/>
     </g>
    </g>
   </g>
   <g id="line2d_8">
    <path clip-path="url(#p3c898b8aaa)" d="M 62.551091 116.706818 
L 69.522497 109.839638 
L 72.6209 107.086581 
L 75.332003 104.956246 
L 78.430406 102.835603 
L 81.916109 100.756204 
L 86.176413 98.495621 
L 106.703332 88.193369 
L 114.062039 84.396741 
L 117.547742 82.350568 
L 120.646145 80.271394 
L 123.357247 78.185834 
L 126.06835 75.795896 
L 128.392152 73.464709 
L 130.715954 70.837163 
L 133.039756 67.879688 
L 135.363558 64.562514 
L 138.074661 60.263582 
L 141.173064 54.881914 
L 144.658767 48.372739 
L 149.693672 38.453823 
L 151.242873 35.347673 
L 151.242873 35.347673 
" style="fill:none;stroke:#000000;stroke-linecap:square;stroke-opacity:0.666667;stroke-width:2;"/>
   </g>
   <g id="line2d_9">
    <defs>
     <path d="M 0 2.5 
C 0.663008 2.5 1.29895 2.236584 1.767767 1.767767 
C 2.236584 1.29895 2.5 0.663008 2.5 0 
C 2.5 -0.663008 2.236584 -1.29895 1.767767 -1.767767 
C 1.29895 -2.236584 0.663008 -2.5 0 -2.5 
C -0.663008 -2.5 -1.29895 -2.236584 -1.767767 -1.767767 
C -2.236584 -1.29895 -2.5 -0.663008 -2.5 0 
C -2.5 0.663008 -2.236584 1.29895 -1.767767 1.767767 
C -1.29895 2.236584 -0.663008 2.5 0 2.5 
z
" id="ma0bcad1b5c" style="stroke:#000000;"/>
    </defs>
    <g clip-path="url(#p3c898b8aaa)">
     <use style="stroke:#000000;" x="151.242873" xlink:href="#ma0bcad1b5c" y="35.347673"/>
    </g>
   </g>
   <g id="line2d_10">
    <path clip-path="url(#p3c898b8aaa)" d="M 62.551091 116.706818 
L 69.522497 109.839638 
L 72.6209 107.086581 
L 75.332003 104.956246 
L 78.430406 102.835603 
L 81.916109 100.756204 
L 86.176413 98.495621 
L 106.703332 88.193369 
L 133.427057 74.681855 
L 136.91276 72.633779 
L 140.011163 70.552212 
L 142.722265 68.464016 
L 145.433368 66.070937 
L 147.75717 63.736656 
L 150.080972 61.105644 
L 152.404774 58.144331 
L 154.728576 54.823147 
L 157.439679 50.520175 
L 160.538082 45.134818 
L 164.023785 38.622677 
L 169.05869 28.701688 
L 170.607891 25.595427 
L 170.607891 25.595427 
" style="fill:none;stroke:#000000;stroke-linecap:square;stroke-opacity:0.833333;stroke-width:2;"/>
   </g>
   <g id="line2d_11">
    <g clip-path="url(#p3c898b8aaa)">
     <use style="stroke:#000000;" x="170.607891" xlink:href="#ma0bcad1b5c" y="25.595427"/>
    </g>
   </g>
   <g id="line2d_12">
    <path clip-path="url(#p3c898b8aaa)" d="M 62.551091 116.706818 
L 69.522497 109.839638 
L 72.6209 107.086581 
L 75.332003 104.956246 
L 78.430406 102.835603 
L 81.916109 100.756204 
L 86.176413 98.495621 
L 106.703332 88.193369 
L 152.792075 64.966958 
L 156.277778 62.916972 
L 159.376181 60.833007 
L 162.087283 58.74217 
L 164.798386 56.345945 
L 167.122188 54.008566 
L 169.44599 51.374084 
L 171.769792 48.40893 
L 174.093594 45.083738 
L 176.804697 40.776734 
L 179.9031 35.387695 
L 183.388803 28.872597 
L 188.423708 18.94955 
L 189.972909 15.843182 
L 189.972909 15.843182 
" style="fill:none;stroke:#000000;stroke-linecap:square;stroke-width:2;"/>
   </g>
   <g id="line2d_13">
    <g clip-path="url(#p3c898b8aaa)">
     <use style="stroke:#000000;" x="189.972909" xlink:href="#ma0bcad1b5c" y="15.843182"/>
    </g>
   </g>
   <g id="patch_3">
    <path d="M 56.18 121.75 
L 56.18 10.8 
" style="fill:none;stroke:#000000;stroke-linecap:square;stroke-linejoin:miter;stroke-width:0.8;"/>
   </g>
   <g id="patch_4">
    <path d="M 196.344 121.75 
L 196.344 10.8 
" style="fill:none;stroke:#000000;stroke-linecap:square;stroke-linejoin:miter;stroke-width:0.8;"/>
   </g>
   <g id="patch_5">
    <path d="M 56.18 121.75 
L 196.344 121.75 
" style="fill:none;stroke:#000000;stroke-linecap:square;stroke-linejoin:miter;stroke-width:0.8;"/>
   </g>
   <g id="patch_6">
    <path d="M 56.18 10.8 
L 196.344 10.8 
" style="fill:none;stroke:#000000;stroke-linecap:square;stroke-linejoin:miter;stroke-width:0.8;"/>
   </g>
   <g id="line2d_14">
    <path clip-path="url(#p3c898b8aaa)" d="M 62.551091 116.706818 
L 69.522497 109.835711 
L 75.719303 104.174088 
L 81.916109 98.420081 
L 85.789112 94.494054 
L 88.887515 91.043769 
L 91.985918 87.2322 
L 94.697021 83.538157 
L 97.408123 79.453318 
L 100.119226 74.955886 
L 103.217629 69.395116 
L 107.090632 61.987725 
L 112.125537 51.960077 
L 112.125537 51.960077 
" style="fill:none;stroke:#0000ff;stroke-linecap:square;stroke-width:2;"/>
   </g>
   <g id="line2d_15">
    <defs>
     <path d="M 0 2.5 
C 0.663008 2.5 1.29895 2.236584 1.767767 1.767767 
C 2.236584 1.29895 2.5 0.663008 2.5 0 
C 2.5 -0.663008 2.236584 -1.29895 1.767767 -1.767767 
C 1.29895 -2.236584 0.663008 -2.5 0 -2.5 
C -0.663008 -2.5 -1.29895 -2.236584 -1.767767 -1.767767 
C -2.236584 -1.29895 -2.5 -0.663008 -2.5 0 
C -2.5 0.663008 -2.236584 1.29895 -1.767767 1.767767 
C -1.29895 2.236584 -0.663008 2.5 0 2.5 
z
" id="m7ca5782303" style="stroke:#0000ff;"/>
    </defs>
    <g clip-path="url(#p3c898b8aaa)">
     <use style="fill:#0000ff;stroke:#0000ff;" x="112.125537" xlink:href="#m7ca5782303" y="51.960077"/>
    </g>
   </g>
   <g id="line2d_16">
    <path clip-path="url(#p3c898b8aaa)" d="M 62.551091 116.706818 
L 69.522497 109.839638 
L 72.6209 107.083669 
L 76.106603 104.289228 
L 80.754208 100.888578 
L 90.049416 94.195398 
L 93.53512 91.37643 
L 96.633523 88.58474 
L 99.344625 85.855972 
L 102.055728 82.804389 
L 104.76683 79.376682 
L 107.090632 76.098875 
L 109.801735 71.852866 
L 112.900138 66.519668 
L 116.385841 60.049707 
L 121.420746 50.158805 
L 123.357247 46.277398 
L 123.357247 46.277398 
" style="fill:none;stroke:#0000ff;stroke-linecap:square;stroke-opacity:0.8;stroke-width:2;"/>
   </g>
   <g id="line2d_17">
    <g clip-path="url(#p3c898b8aaa)">
     <use style="fill:#0000ff;stroke:#0000ff;" x="123.357247" xlink:href="#m7ca5782303" y="46.277398"/>
    </g>
   </g>
   <g id="line2d_18">
    <path clip-path="url(#p3c898b8aaa)" d="M 62.551091 116.706818 
L 69.522497 109.839638 
L 72.6209 107.086581 
L 75.332003 104.956246 
L 78.430406 102.835603 
L 81.916109 100.756204 
L 86.176413 98.495621 
L 95.858922 93.458029 
L 99.344625 91.321846 
L 102.055728 89.42333 
L 104.76683 87.259019 
L 107.477933 84.775606 
L 109.801735 82.352577 
L 112.125537 79.62237 
L 114.449339 76.551415 
L 116.773141 73.118908 
L 119.484244 68.705219 
L 122.582647 63.219445 
L 126.45565 55.874736 
L 131.877855 45.099919 
L 131.877855 45.099919 
" style="fill:none;stroke:#0000ff;stroke-linecap:square;stroke-opacity:0.6;stroke-width:2;"/>
   </g>
   <g id="line2d_19">
    <g clip-path="url(#p3c898b8aaa)">
     <use style="fill:#0000ff;stroke:#0000ff;" x="131.877855" xlink:href="#m7ca5782303" y="45.099919"/>
    </g>
   </g>
   <g id="line2d_20">
    <path clip-path="url(#p3c898b8aaa)" d="M 62.551091 116.706753 
L 62.938391 116.316864 
L 63.325692 115.925886 
L 63.712992 115.533666 
L 64.100292 115.140046 
L 64.487593 114.744872 
L 64.874893 114.347989 
L 65.262193 113.949241 
L 65.649494 113.548472 
L 66.036794 113.145527 
L 66.424095 112.740251 
L 66.811395 112.332489 
L 67.198695 111.922084 
L 67.585996 111.508882 
L 67.973296 111.092727 
L 68.360596 110.673464 
L 68.747897 110.250937 
L 69.135197 109.82499 
L 69.522497 109.395469 
L 69.909798 108.962218 
L 70.297098 108.525082 
L 70.684398 108.083905 
L 71.071699 107.638531 
L 71.458999 107.188806 
L 71.8463 106.734574 
L 72.2336 106.275679 
L 72.6209 105.811967 
L 73.008201 105.343281 
L 73.395501 104.869466 
L 73.782801 104.390367 
L 74.170102 103.905828 
L 74.557402 103.415695 
L 74.944702 102.919811 
L 75.332003 102.418021 
L 75.719303 101.91017 
L 76.106603 101.396102 
L 76.493904 100.875662 
L 76.881204 100.348695 
L 77.268505 99.815045 
L 77.655805 99.274556 
L 78.043105 98.727073 
L 78.430406 98.172442 
L 78.817706 97.610506 
L 79.205006 97.041109 
L 79.592307 96.464098 
L 79.979607 95.879315 
L 80.366907 95.286606 
L 80.754208 94.685816 
L 81.141508 94.076788 
L 81.528809 93.459368 
L 81.916109 92.833484 
L 82.303409 92.199321 
L 82.69071 91.557111 
L 83.07801 90.907088 
L 83.46531 90.249485 
L 83.852611 89.584535 
L 84.239911 88.912471 
L 84.627211 88.233526 
L 85.014512 87.547934 
L 85.401812 86.855927 
L 85.789112 86.157739 
L 86.176413 85.453603 
L 86.563713 84.743752 
L 86.951014 84.028419 
L 87.338314 83.307837 
L 87.725614 82.582239 
L 88.112915 81.851859 
L 88.500215 81.116929 
L 88.887515 80.377683 
L 89.274816 79.634354 
L 89.662116 78.887174 
L 90.049416 78.136378 
L 90.436717 77.382198 
L 90.824017 76.624867 
L 91.211317 75.864618 
L 91.598618 75.101686 
L 91.985918 74.336301 
L 92.373219 73.568699 
L 92.760519 72.799112 
L 93.147819 72.027772 
L 93.53512 71.254914 
L 93.92242 70.48077 
L 94.30972 69.705574 
L 94.697021 68.929558 
L 95.084321 68.152956 
L 95.471621 67.376 
L 95.858922 66.598925 
" style="fill:none;stroke:#ff0000;stroke-linecap:square;stroke-width:2;"/>
   </g>
   <g id="line2d_21">
    <defs>
     <path d="M 0 2.5 
C 0.663008 2.5 1.29895 2.236584 1.767767 1.767767 
C 2.236584 1.29895 2.5 0.663008 2.5 0 
C 2.5 -0.663008 2.236584 -1.29895 1.767767 -1.767767 
C 1.29895 -2.236584 0.663008 -2.5 0 -2.5 
C -0.663008 -2.5 -1.29895 -2.236584 -1.767767 -1.767767 
C -2.236584 -1.29895 -2.5 -0.663008 -2.5 0 
C -2.5 0.663008 -2.236584 1.29895 -1.767767 1.767767 
C -1.29895 2.236584 -0.663008 2.5 0 2.5 
z
" id="m26f3f2e3e9" style="stroke:#ff0000;"/>
    </defs>
    <g clip-path="url(#p3c898b8aaa)">
     <use style="fill:#ff0000;stroke:#ff0000;" x="95.858922" xlink:href="#m26f3f2e3e9" y="66.598925"/>
    </g>
   </g>
  </g>
  <g id="axes_2">
   <g id="patch_7">
    <path d="M 245.036 121.75 
L 385.2 121.75 
L 385.2 10.8 
L 245.036 10.8 
z
" style="fill:#ffffff;"/>
   </g>
   <g id="matplotlib.axis_3">
    <g id="xtick_5">
     <g id="line2d_22">
      <g>
       <use style="stroke:#000000;stroke-width:0.8;" x="251.019791" xlink:href="#m762a480618" y="121.75"/>
      </g>
     </g>
     <g id="text_10">
      <!-- 0 -->
      <g transform="translate(247.520416 137.108281)scale(0.11 -0.11)">
       <use xlink:href="#DejaVuSans-30"/>
      </g>
     </g>
    </g>
    <g id="xtick_6">
     <g id="line2d_23">
      <g>
       <use style="stroke:#000000;stroke-width:0.8;" x="289.749826" xlink:href="#m762a480618" y="121.75"/>
      </g>
     </g>
     <g id="text_11">
      <!-- 10 -->
      <g transform="translate(282.751076 137.108281)scale(0.11 -0.11)">
       <use xlink:href="#DejaVuSans-31"/>
       <use x="63.623047" xlink:href="#DejaVuSans-30"/>
      </g>
     </g>
    </g>
    <g id="xtick_7">
     <g id="line2d_24">
      <g>
       <use style="stroke:#000000;stroke-width:0.8;" x="328.479862" xlink:href="#m762a480618" y="121.75"/>
      </g>
     </g>
     <g id="text_12">
      <!-- 20 -->
      <g transform="translate(321.481112 137.108281)scale(0.11 -0.11)">
       <use xlink:href="#DejaVuSans-32"/>
       <use x="63.623047" xlink:href="#DejaVuSans-30"/>
      </g>
     </g>
    </g>
    <g id="xtick_8">
     <g id="line2d_25">
      <g>
       <use style="stroke:#000000;stroke-width:0.8;" x="367.209898" xlink:href="#m762a480618" y="121.75"/>
      </g>
     </g>
     <g id="text_13">
      <!-- 30 -->
      <g transform="translate(360.211148 137.108281)scale(0.11 -0.11)">
       <use xlink:href="#DejaVuSans-33"/>
       <use x="63.623047" xlink:href="#DejaVuSans-30"/>
      </g>
     </g>
    </g>
    <g id="text_14">
     <!-- $t~\mathrm{(s)}$ -->
     <g transform="translate(302.998 152.514062)scale(0.12 -0.12)">
      <use transform="translate(0 0.125)" xlink:href="#DejaVuSans-Oblique-74"/>
      <use transform="translate(71.679363 0.125)" xlink:href="#DejaVuSans-28"/>
      <use transform="translate(110.693035 0.125)" xlink:href="#DejaVuSans-73"/>
      <use transform="translate(162.792644 0.125)" xlink:href="#DejaVuSans-29"/>
     </g>
    </g>
   </g>
   <g id="matplotlib.axis_4">
    <g id="ytick_4">
     <g id="line2d_26">
      <g>
       <use style="stroke:#000000;stroke-width:0.8;" x="245.036" xlink:href="#mca0d693472" y="116.706818"/>
      </g>
     </g>
     <g id="text_15">
      <!-- 5 -->
      <g transform="translate(231.03725 120.885959)scale(0.11 -0.11)">
       <defs>
        <path d="M 691 4666 
L 3169 4666 
L 3169 4134 
L 1269 4134 
L 1269 2991 
Q 1406 3038 1543 3061 
Q 1681 3084 1819 3084 
Q 2600 3084 3056 2656 
Q 3513 2228 3513 1497 
Q 3513 744 3044 326 
Q 2575 -91 1722 -91 
Q 1428 -91 1123 -41 
Q 819 9 494 109 
L 494 744 
Q 775 591 1075 516 
Q 1375 441 1709 441 
Q 2250 441 2565 725 
Q 2881 1009 2881 1497 
Q 2881 1984 2565 2268 
Q 2250 2553 1709 2553 
Q 1456 2553 1204 2497 
Q 953 2441 691 2322 
L 691 4666 
z
" id="DejaVuSans-35" transform="scale(0.015625)"/>
       </defs>
       <use xlink:href="#DejaVuSans-35"/>
      </g>
     </g>
    </g>
    <g id="ytick_5">
     <g id="line2d_27">
      <g>
       <use style="stroke:#000000;stroke-width:0.8;" x="245.036" xlink:href="#mca0d693472" y="83.085541"/>
      </g>
     </g>
     <g id="text_16">
      <!-- 10 -->
      <g transform="translate(224.0385 87.264681)scale(0.11 -0.11)">
       <use xlink:href="#DejaVuSans-31"/>
       <use x="63.623047" xlink:href="#DejaVuSans-30"/>
      </g>
     </g>
    </g>
    <g id="ytick_6">
     <g id="line2d_28">
      <g>
       <use style="stroke:#000000;stroke-width:0.8;" x="245.036" xlink:href="#mca0d693472" y="49.464263"/>
      </g>
     </g>
     <g id="text_17">
      <!-- 15 -->
      <g transform="translate(224.0385 53.643403)scale(0.11 -0.11)">
       <use xlink:href="#DejaVuSans-31"/>
       <use x="63.623047" xlink:href="#DejaVuSans-35"/>
      </g>
     </g>
    </g>
    <g id="ytick_7">
     <g id="line2d_29">
      <g>
       <use style="stroke:#000000;stroke-width:0.8;" x="245.036" xlink:href="#mca0d693472" y="15.842985"/>
      </g>
     </g>
     <g id="text_18">
      <!-- 20 -->
      <g transform="translate(224.0385 20.022126)scale(0.11 -0.11)">
       <use xlink:href="#DejaVuSans-32"/>
       <use x="63.623047" xlink:href="#DejaVuSans-30"/>
      </g>
     </g>
    </g>
    <g id="text_19">
     <!-- $v_k~\mathrm{(m/s)}$ -->
     <g transform="translate(217.542875 90.095)rotate(-90)scale(0.12 -0.12)">
      <defs>
       <path d="M 459 3500 
L 1069 3500 
L 1581 525 
L 3256 3500 
L 3866 3500 
L 1875 0 
L 1100 0 
L 459 3500 
z
" id="DejaVuSans-Oblique-76" transform="scale(0.015625)"/>
       <path d="M 1625 4666 
L 2156 4666 
L 531 -594 
L 0 -594 
L 1625 4666 
z
" id="DejaVuSans-2f" transform="scale(0.015625)"/>
      </defs>
      <use transform="translate(0 0.125)" xlink:href="#DejaVuSans-Oblique-76"/>
      <use transform="translate(59.179688 -16.28125)scale(0.7)" xlink:href="#DejaVuSans-Oblique-6b"/>
      <use transform="translate(134.92155 0.125)" xlink:href="#DejaVuSans-28"/>
      <use transform="translate(173.935222 0.125)" xlink:href="#DejaVuSans-6d"/>
      <use transform="translate(271.347332 0.125)" xlink:href="#DejaVuSans-2f"/>
      <use transform="translate(305.038738 0.125)" xlink:href="#DejaVuSans-73"/>
      <use transform="translate(357.138347 0.125)" xlink:href="#DejaVuSans-29"/>
     </g>
    </g>
   </g>
   <g id="line2d_30">
    <path clip-path="url(#pac21676962)" d="M 251.407091 82.971228 
L 252.181692 82.86364 
L 252.956292 82.917434 
L 253.730893 83.13261 
L 254.892794 83.757966 
L 256.054695 84.746432 
L 257.216596 86.098007 
L 258.378497 87.812692 
L 259.540398 89.890487 
L 261.0896 93.225718 
L 262.638801 97.187014 
L 264.575303 101.974396 
L 266.511805 106.089354 
L 268.061006 108.897173 
L 269.610208 111.27464 
L 271.159409 113.221755 
L 272.708611 114.738517 
L 273.870512 115.59367 
L 275.032413 116.206749 
L 276.194314 116.577756 
L 277.356215 116.706689 
L 297.495834 116.654705 
L 298.657735 116.374828 
L 299.819636 115.852877 
L 300.981537 115.088853 
L 302.143438 114.082756 
L 303.305339 112.834586 
L 304.85454 110.793801 
L 306.403742 108.322664 
L 307.952943 105.421174 
L 309.502145 102.089331 
L 311.438647 97.319346 
L 313.375148 91.876934 
L 315.31165 85.762097 
L 317.248152 78.974835 
L 319.571954 69.942518 
L 321.895756 59.941909 
L 324.994159 46.266523 
L 326.930661 38.936769 
L 328.479862 33.799186 
L 330.029064 29.307132 
L 331.578265 25.460606 
L 333.127467 22.259608 
L 334.289368 20.282488 
L 335.451269 18.668478 
L 336.61317 17.417578 
L 337.775071 16.529787 
L 338.936972 16.005106 
L 339.711573 15.857047 
L 340.098873 15.843535 
L 340.098873 15.843535 
" style="fill:none;stroke:#000000;stroke-linecap:square;stroke-opacity:0.666667;stroke-width:2;"/>
   </g>
   <g id="line2d_31">
    <path clip-path="url(#pac21676962)" d="M 251.407091 82.971228 
L 252.181692 82.86364 
L 252.956292 82.917434 
L 253.730893 83.13261 
L 254.892794 83.757966 
L 256.054695 84.746432 
L 257.216596 86.098007 
L 258.378497 87.812692 
L 259.540398 89.890487 
L 261.0896 93.225718 
L 262.638801 97.187014 
L 264.575303 101.974396 
L 266.511805 106.089354 
L 268.061006 108.897173 
L 269.610208 111.27464 
L 271.159409 113.221755 
L 272.708611 114.738517 
L 273.870512 115.59367 
L 275.032413 116.206749 
L 276.194314 116.577756 
L 277.356215 116.706689 
L 316.860852 116.651132 
L 318.022753 116.365899 
L 319.184654 115.838593 
L 320.346555 115.069214 
L 321.508456 114.057762 
L 322.670357 112.804236 
L 324.219558 110.75631 
L 325.76876 108.278032 
L 327.317961 105.369402 
L 328.867163 102.030419 
L 330.803665 97.251508 
L 332.740166 91.800171 
L 334.676668 85.676408 
L 336.61317 78.88022 
L 338.936972 69.837193 
L 341.260774 59.825872 
L 344.359177 46.162624 
L 346.295679 38.846259 
L 347.84488 33.719387 
L 349.394082 29.238043 
L 350.943283 25.402227 
L 352.492485 22.211941 
L 353.654386 20.242854 
L 354.816287 18.636877 
L 355.978188 17.394009 
L 357.140089 16.514252 
L 358.30199 15.997604 
L 359.076591 15.8549 
L 359.463891 15.844066 
L 359.463891 15.844066 
" style="fill:none;stroke:#000000;stroke-linecap:square;stroke-opacity:0.833333;stroke-width:2;"/>
   </g>
   <g id="line2d_32">
    <path clip-path="url(#pac21676962)" d="M 251.407091 82.971228 
L 252.181692 82.86364 
L 252.956292 82.917434 
L 253.730893 83.13261 
L 254.892794 83.757966 
L 256.054695 84.746432 
L 257.216596 86.098007 
L 258.378497 87.812692 
L 259.540398 89.890487 
L 261.0896 93.225718 
L 262.638801 97.187014 
L 264.575303 101.974396 
L 266.511805 106.089354 
L 268.061006 108.897173 
L 269.610208 111.27464 
L 271.159409 113.221755 
L 272.708611 114.738517 
L 273.870512 115.59367 
L 275.032413 116.206749 
L 276.194314 116.577756 
L 277.356215 116.706689 
L 336.22587 116.64744 
L 337.387771 116.356852 
L 338.549672 115.824191 
L 339.711573 115.049456 
L 340.873474 114.032648 
L 342.035375 112.773767 
L 343.584576 110.718701 
L 345.133778 108.233283 
L 346.682979 105.317512 
L 348.232181 101.971389 
L 350.168683 97.183551 
L 352.105184 91.723289 
L 354.041686 85.590601 
L 355.978188 78.785487 
L 358.30199 69.731749 
L 360.625792 59.709718 
L 363.724195 46.058903 
L 365.660697 38.755926 
L 367.209898 33.639764 
L 368.7591 29.169131 
L 370.308301 25.344027 
L 371.857503 22.164451 
L 373.019404 20.203397 
L 374.181305 18.605453 
L 375.343206 17.370619 
L 376.505107 16.498894 
L 377.667008 15.99028 
L 378.441609 15.852931 
L 378.828909 15.844775 
L 378.828909 15.844775 
" style="fill:none;stroke:#000000;stroke-linecap:square;stroke-width:2;"/>
   </g>
   <g id="patch_8">
    <path d="M 245.036 121.75 
L 245.036 10.8 
" style="fill:none;stroke:#000000;stroke-linecap:square;stroke-linejoin:miter;stroke-width:0.8;"/>
   </g>
   <g id="patch_9">
    <path d="M 385.2 121.75 
L 385.2 10.8 
" style="fill:none;stroke:#000000;stroke-linecap:square;stroke-linejoin:miter;stroke-width:0.8;"/>
   </g>
   <g id="patch_10">
    <path d="M 245.036 121.75 
L 385.2 121.75 
" style="fill:none;stroke:#000000;stroke-linecap:square;stroke-linejoin:miter;stroke-width:0.8;"/>
   </g>
   <g id="patch_11">
    <path d="M 245.036 10.8 
L 385.2 10.8 
" style="fill:none;stroke:#000000;stroke-linecap:square;stroke-linejoin:miter;stroke-width:0.8;"/>
   </g>
   <g id="line2d_33">
    <path clip-path="url(#pac21676962)" d="M 251.407091 82.971228 
L 252.181692 82.86364 
L 252.956292 82.917434 
L 253.730893 83.13261 
L 254.892794 83.757966 
L 256.054695 84.746432 
L 259.540398 88.276393 
L 260.7023 89.016978 
L 261.864201 89.51549 
L 263.026102 89.771928 
L 264.188003 89.786293 
L 265.349904 89.558585 
L 266.511805 89.088804 
L 267.673706 88.37695 
L 268.835607 87.423022 
L 269.997508 86.227022 
L 271.54671 84.255796 
L 273.095911 81.854217 
L 274.645112 79.022287 
L 276.194314 75.760004 
L 278.130816 71.076967 
L 280.067317 65.721505 
L 282.003819 59.693617 
L 283.940321 52.993304 
L 286.264123 44.091146 
L 288.200625 37.046667 
L 289.749826 32.137303 
L 291.299028 27.873468 
L 292.848229 24.255161 
L 294.397431 21.282383 
L 295.559332 19.476428 
L 296.721233 18.033582 
L 297.883134 16.953846 
L 299.045035 16.23722 
L 299.819636 15.961197 
L 300.594237 15.846556 
L 300.981537 15.849754 
L 300.981537 15.849754 
" style="fill:none;stroke:#0000ff;stroke-linecap:square;stroke-width:2;"/>
   </g>
   <g id="line2d_34">
    <path clip-path="url(#pac21676962)" d="M 251.407091 82.971228 
L 252.181692 82.86364 
L 252.956292 82.917434 
L 253.730893 83.13261 
L 254.892794 83.757966 
L 256.054695 84.746432 
L 257.216596 86.098007 
L 258.378497 87.812692 
L 259.540398 89.890487 
L 262.251501 95.112961 
L 263.800702 97.545564 
L 265.349904 99.547816 
L 266.899105 101.119715 
L 268.061006 102.01622 
L 269.222907 102.670652 
L 270.384809 103.083011 
L 271.54671 103.253297 
L 272.708611 103.18151 
L 273.870512 102.867649 
L 275.032413 102.311716 
L 276.194314 101.513709 
L 277.356215 100.473629 
L 278.518116 99.191475 
L 280.067317 97.105379 
L 281.616519 94.588931 
L 283.16572 91.64213 
L 284.714922 88.264977 
L 286.651424 83.438353 
L 288.587925 77.939303 
L 290.524427 71.767827 
L 292.460929 64.923926 
L 294.784731 55.823643 
L 298.657735 40.123914 
L 300.594237 33.629565 
L 302.143438 29.160306 
L 303.692639 25.336575 
L 305.241841 22.158373 
L 306.403742 20.198349 
L 307.565643 18.601436 
L 308.727544 17.367632 
L 309.889445 16.496937 
L 311.051346 15.989353 
L 311.825947 15.852691 
L 312.213247 15.844878 
L 312.213247 15.844878 
" style="fill:none;stroke:#0000ff;stroke-linecap:square;stroke-opacity:0.8;stroke-width:2;"/>
   </g>
   <g id="line2d_35">
    <path clip-path="url(#pac21676962)" d="M 251.407091 82.971228 
L 252.181692 82.86364 
L 252.956292 82.917434 
L 253.730893 83.13261 
L 254.892794 83.757966 
L 256.054695 84.746432 
L 257.216596 86.098007 
L 258.378497 87.812692 
L 259.540398 89.890487 
L 261.0896 93.225718 
L 262.638801 97.187014 
L 264.575303 101.974396 
L 266.511805 106.089354 
L 268.061006 108.897173 
L 269.610208 111.27464 
L 271.159409 113.221755 
L 272.708611 114.738517 
L 273.870512 115.59367 
L 275.032413 116.206749 
L 276.194314 116.577756 
L 277.356215 116.706689 
L 278.518116 116.59355 
L 279.680017 116.238336 
L 280.841918 115.64105 
L 282.003819 114.801691 
L 283.16572 113.720258 
L 284.714922 111.90179 
L 286.264123 109.652969 
L 287.813325 106.973796 
L 289.362526 103.86427 
L 290.911728 100.324392 
L 292.848229 95.294362 
L 294.784731 89.591906 
L 296.721233 83.217024 
L 299.045035 74.679565 
L 301.368837 65.173812 
L 307.178343 40.415395 
L 309.114844 33.879164 
L 310.664046 29.376398 
L 312.213247 25.519162 
L 313.762449 22.307453 
L 314.92435 20.3223 
L 316.086251 18.700257 
L 317.248152 17.441324 
L 318.410053 16.5455 
L 319.571954 16.012786 
L 320.346555 15.859371 
L 320.733855 15.843182 
L 320.733855 15.843182 
" style="fill:none;stroke:#0000ff;stroke-linecap:square;stroke-opacity:0.6;stroke-width:2;"/>
   </g>
   <g id="line2d_36">
    <path clip-path="url(#pac21676962)" d="M 251.407091 82.937607 
L 251.794391 82.762776 
L 252.181692 82.561049 
L 252.568992 82.332424 
L 252.956292 82.076902 
L 253.343593 81.794483 
L 253.730893 81.485168 
L 254.118193 81.148955 
L 254.505494 80.785845 
L 254.892794 80.395838 
L 255.280095 79.978934 
L 255.667395 79.535134 
L 256.054695 79.064436 
L 256.441996 78.566841 
L 256.829296 78.042349 
L 257.216596 77.49096 
L 257.603897 76.912674 
L 257.991197 76.307491 
L 258.378497 75.675411 
L 258.765798 75.016434 
L 259.153098 74.33056 
L 259.540398 73.617789 
L 259.927699 72.878121 
L 260.314999 72.111555 
L 260.7023 71.318093 
L 261.0896 70.497734 
L 261.4769 69.650478 
L 261.864201 68.776325 
L 262.251501 67.875274 
L 262.638801 66.947327 
L 263.026102 65.992483 
L 263.413402 65.010742 
L 263.800702 64.002103 
L 264.188003 62.966568 
L 264.575303 61.904136 
L 264.962603 60.814806 
L 265.349904 59.69858 
L 265.737204 58.555456 
L 266.124505 57.385436 
L 266.511805 56.188518 
L 266.899105 54.964704 
L 267.286406 53.713992 
L 267.673706 52.436384 
L 268.061006 51.131878 
L 268.448307 49.800476 
L 268.835607 48.442176 
L 269.222907 47.056979 
L 269.610208 45.644886 
L 269.997508 44.205895 
L 270.384809 42.740286 
L 270.772109 41.28724 
L 271.159409 39.87454 
L 271.54671 38.502186 
L 271.93401 37.170177 
L 272.32131 35.878514 
L 272.708611 34.627196 
L 273.095911 33.416224 
L 273.483211 32.245597 
L 273.870512 31.115316 
L 274.257812 30.02538 
L 274.645112 28.97579 
L 275.032413 27.966546 
L 275.419713 26.997647 
L 275.807014 26.069093 
L 276.194314 25.180885 
L 276.581614 24.333023 
L 276.968915 23.525506 
L 277.356215 22.758334 
L 277.743515 22.031509 
L 278.130816 21.345028 
L 278.518116 20.698894 
L 278.905416 20.093104 
L 279.292717 19.527661 
L 279.680017 19.002562 
L 280.067317 18.51781 
L 280.454618 18.073403 
L 280.841918 17.669341 
L 281.229219 17.305625 
L 281.616519 16.982255 
L 282.003819 16.69923 
L 282.39112 16.45655 
L 282.77842 16.254216 
L 283.16572 16.092228 
L 283.553021 15.970585 
L 283.940321 15.889288 
L 284.327621 15.848336 
L 284.714922 15.84773 
" style="fill:none;stroke:#ff0000;stroke-linecap:square;stroke-width:2;"/>
   </g>
  </g>
  <g id="axes_3">
   <g id="patch_12">
    <path d="M 56.18 277.18 
L 196.344 277.18 
L 196.344 166.23 
L 56.18 166.23 
z
" style="fill:#ffffff;"/>
   </g>
   <g id="matplotlib.axis_5">
    <g id="xtick_9">
     <g id="line2d_37">
      <g>
       <use style="stroke:#000000;stroke-width:0.8;" x="62.163791" xlink:href="#m762a480618" y="277.18"/>
      </g>
     </g>
     <g id="text_20">
      <!-- 0 -->
      <g transform="translate(58.664416 292.538281)scale(0.11 -0.11)">
       <use xlink:href="#DejaVuSans-30"/>
      </g>
     </g>
    </g>
    <g id="xtick_10">
     <g id="line2d_38">
      <g>
       <use style="stroke:#000000;stroke-width:0.8;" x="100.893826" xlink:href="#m762a480618" y="277.18"/>
      </g>
     </g>
     <g id="text_21">
      <!-- 10 -->
      <g transform="translate(93.895076 292.538281)scale(0.11 -0.11)">
       <use xlink:href="#DejaVuSans-31"/>
       <use x="63.623047" xlink:href="#DejaVuSans-30"/>
      </g>
     </g>
    </g>
    <g id="xtick_11">
     <g id="line2d_39">
      <g>
       <use style="stroke:#000000;stroke-width:0.8;" x="139.623862" xlink:href="#m762a480618" y="277.18"/>
      </g>
     </g>
     <g id="text_22">
      <!-- 20 -->
      <g transform="translate(132.625112 292.538281)scale(0.11 -0.11)">
       <use xlink:href="#DejaVuSans-32"/>
       <use x="63.623047" xlink:href="#DejaVuSans-30"/>
      </g>
     </g>
    </g>
    <g id="xtick_12">
     <g id="line2d_40">
      <g>
       <use style="stroke:#000000;stroke-width:0.8;" x="178.353898" xlink:href="#m762a480618" y="277.18"/>
      </g>
     </g>
     <g id="text_23">
      <!-- 30 -->
      <g transform="translate(171.355148 292.538281)scale(0.11 -0.11)">
       <use xlink:href="#DejaVuSans-33"/>
       <use x="63.623047" xlink:href="#DejaVuSans-30"/>
      </g>
     </g>
    </g>
    <g id="text_24">
     <!-- $t~\mathrm{(s)}$ -->
     <g transform="translate(114.142 307.944062)scale(0.12 -0.12)">
      <use transform="translate(0 0.125)" xlink:href="#DejaVuSans-Oblique-74"/>
      <use transform="translate(71.679363 0.125)" xlink:href="#DejaVuSans-28"/>
      <use transform="translate(110.693035 0.125)" xlink:href="#DejaVuSans-73"/>
      <use transform="translate(162.792644 0.125)" xlink:href="#DejaVuSans-29"/>
     </g>
    </g>
   </g>
   <g id="matplotlib.axis_6">
    <g id="ytick_8">
     <g id="line2d_41">
      <g>
       <use style="stroke:#000000;stroke-width:0.8;" x="56.18" xlink:href="#mca0d693472" y="259.236606"/>
      </g>
     </g>
     <g id="text_25">
      <!-- −1 -->
      <g transform="translate(32.963594 263.415747)scale(0.11 -0.11)">
       <defs>
        <path d="M 678 2272 
L 4684 2272 
L 4684 1741 
L 678 1741 
L 678 2272 
z
" id="DejaVuSans-2212" transform="scale(0.015625)"/>
       </defs>
       <use xlink:href="#DejaVuSans-2212"/>
       <use x="83.789062" xlink:href="#DejaVuSans-31"/>
      </g>
     </g>
    </g>
    <g id="ytick_9">
     <g id="line2d_42">
      <g>
       <use style="stroke:#000000;stroke-width:0.8;" x="56.18" xlink:href="#mca0d693472" y="235.347325"/>
      </g>
     </g>
     <g id="text_26">
      <!-- 0 -->
      <g transform="translate(42.18125 239.526466)scale(0.11 -0.11)">
       <use xlink:href="#DejaVuSans-30"/>
      </g>
     </g>
    </g>
    <g id="ytick_10">
     <g id="line2d_43">
      <g>
       <use style="stroke:#000000;stroke-width:0.8;" x="56.18" xlink:href="#mca0d693472" y="211.458044"/>
      </g>
     </g>
     <g id="text_27">
      <!-- 1 -->
      <g transform="translate(42.18125 215.637184)scale(0.11 -0.11)">
       <use xlink:href="#DejaVuSans-31"/>
      </g>
     </g>
    </g>
    <g id="ytick_11">
     <g id="line2d_44">
      <g>
       <use style="stroke:#000000;stroke-width:0.8;" x="56.18" xlink:href="#mca0d693472" y="187.568762"/>
      </g>
     </g>
     <g id="text_28">
      <!-- 2 -->
      <g transform="translate(42.18125 191.747903)scale(0.11 -0.11)">
       <use xlink:href="#DejaVuSans-32"/>
      </g>
     </g>
    </g>
    <g id="text_29">
     <!-- $a_k~\mathrm{(m/s^2)}$ -->
     <g transform="translate(26.467969 248.525)rotate(-90)scale(0.12 -0.12)">
      <defs>
       <path d="M 3438 1997 
L 3047 0 
L 2472 0 
L 2578 531 
Q 2325 219 2001 64 
Q 1678 -91 1281 -91 
Q 834 -91 548 182 
Q 263 456 263 884 
Q 263 1497 752 1853 
Q 1241 2209 2100 2209 
L 2900 2209 
L 2931 2363 
Q 2938 2388 2941 2417 
Q 2944 2447 2944 2509 
Q 2944 2788 2717 2942 
Q 2491 3097 2081 3097 
Q 1800 3097 1504 3025 
Q 1209 2953 897 2809 
L 997 3341 
Q 1322 3463 1633 3523 
Q 1944 3584 2234 3584 
Q 2853 3584 3176 3315 
Q 3500 3047 3500 2534 
Q 3500 2431 3484 2292 
Q 3469 2153 3438 1997 
z
M 2816 1759 
L 2241 1759 
Q 1534 1759 1195 1570 
Q 856 1381 856 984 
Q 856 709 1029 553 
Q 1203 397 1509 397 
Q 1978 397 2328 733 
Q 2678 1069 2791 1631 
L 2816 1759 
z
" id="DejaVuSans-Oblique-61" transform="scale(0.015625)"/>
      </defs>
      <use transform="translate(0 0.765625)" xlink:href="#DejaVuSans-Oblique-61"/>
      <use transform="translate(61.279297 -15.640625)scale(0.7)" xlink:href="#DejaVuSans-Oblique-6b"/>
      <use transform="translate(137.02116 0.765625)" xlink:href="#DejaVuSans-28"/>
      <use transform="translate(176.034832 0.765625)" xlink:href="#DejaVuSans-6d"/>
      <use transform="translate(273.446941 0.765625)" xlink:href="#DejaVuSans-2f"/>
      <use transform="translate(307.138347 0.765625)" xlink:href="#DejaVuSans-73"/>
      <use transform="translate(360.194988 39.046875)scale(0.7)" xlink:href="#DejaVuSans-32"/>
      <use transform="translate(407.465496 0.765625)" xlink:href="#DejaVuSans-29"/>
     </g>
    </g>
   </g>
   <g id="line2d_45">
    <path clip-path="url(#pff7fee903b)" d="M 62.551091 232.002825 
L 73.395501 272.136818 
L 73.782801 271.752549 
L 88.500215 235.440841 
L 89.274816 235.347325 
L 107.865233 235.347325 
L 111.738237 225.821708 
L 133.814357 171.354147 
L 134.588958 173.949635 
L 151.242873 235.583981 
L 151.242873 235.583981 
" style="fill:none;stroke:#000000;stroke-linecap:square;stroke-opacity:0.666667;stroke-width:2;"/>
   </g>
   <g id="line2d_46">
    <path clip-path="url(#pff7fee903b)" d="M 62.551091 232.002825 
L 73.395501 272.136818 
L 73.782801 271.752549 
L 88.500215 235.440841 
L 89.274816 235.347325 
L 127.230251 235.314 
L 153.179375 171.290726 
L 154.728576 176.911479 
L 170.607891 235.679111 
L 170.607891 235.679111 
" style="fill:none;stroke:#000000;stroke-linecap:square;stroke-opacity:0.833333;stroke-width:2;"/>
   </g>
   <g id="line2d_47">
    <path clip-path="url(#pff7fee903b)" d="M 62.551091 232.002825 
L 73.395501 272.136818 
L 73.782801 271.752549 
L 88.500215 235.440841 
L 89.274816 235.347325 
L 146.595269 235.25058 
L 172.544393 171.273182 
L 189.972909 235.774242 
L 189.972909 235.774242 
" style="fill:none;stroke:#000000;stroke-linecap:square;stroke-width:2;"/>
   </g>
   <g id="patch_13">
    <path d="M 56.18 277.18 
L 56.18 166.23 
" style="fill:none;stroke:#000000;stroke-linecap:square;stroke-linejoin:miter;stroke-width:0.8;"/>
   </g>
   <g id="patch_14">
    <path d="M 196.344 277.18 
L 196.344 166.23 
" style="fill:none;stroke:#000000;stroke-linecap:square;stroke-linejoin:miter;stroke-width:0.8;"/>
   </g>
   <g id="patch_15">
    <path d="M 56.18 277.18 
L 196.344 277.18 
" style="fill:none;stroke:#000000;stroke-linecap:square;stroke-linejoin:miter;stroke-width:0.8;"/>
   </g>
   <g id="patch_16">
    <path d="M 56.18 166.23 
L 196.344 166.23 
" style="fill:none;stroke:#000000;stroke-linecap:square;stroke-linejoin:miter;stroke-width:0.8;"/>
   </g>
   <g id="line2d_48">
    <path clip-path="url(#pff7fee903b)" d="M 62.551091 232.002825 
L 67.973296 252.069822 
L 68.747897 250.328798 
L 97.020823 180.572096 
L 97.795424 183.143408 
L 112.125537 236.177613 
L 112.125537 236.177613 
" style="fill:none;stroke:#0000ff;stroke-linecap:square;stroke-width:2;"/>
   </g>
   <g id="line2d_49">
    <path clip-path="url(#pff7fee903b)" d="M 62.551091 232.002825 
L 71.071699 263.536677 
L 71.458999 263.642118 
L 107.090632 175.729563 
L 108.252533 179.885524 
L 123.357247 235.786443 
L 123.357247 235.786443 
" style="fill:none;stroke:#0000ff;stroke-linecap:square;stroke-opacity:0.8;stroke-width:2;"/>
   </g>
   <g id="line2d_50">
    <path clip-path="url(#pff7fee903b)" d="M 62.551091 232.002825 
L 73.395501 272.136818 
L 73.782801 271.752549 
L 114.449339 171.417567 
L 114.836639 172.421147 
L 131.877855 235.48885 
L 131.877855 235.48885 
" style="fill:none;stroke:#0000ff;stroke-linecap:square;stroke-opacity:0.6;stroke-width:2;"/>
   </g>
   <g id="line2d_51">
    <path clip-path="url(#pff7fee903b)" d="M 62.551091 229.613897 
L 62.938391 228.658326 
L 63.325692 227.702755 
L 63.712992 226.747184 
L 64.100292 225.791612 
L 64.487593 224.836041 
L 64.874893 223.88047 
L 65.262193 222.924899 
L 65.649494 221.969327 
L 66.036794 221.013756 
L 66.424095 220.058185 
L 66.811395 219.102614 
L 67.198695 218.147042 
L 67.585996 217.191471 
L 67.973296 216.2359 
L 68.360596 215.280329 
L 68.747897 214.324757 
L 69.135197 213.369186 
L 69.522497 212.413615 
L 69.909798 211.458044 
L 70.297098 210.502472 
L 70.684398 209.546901 
L 71.071699 208.59133 
L 71.458999 207.635758 
L 71.8463 206.680187 
L 72.2336 205.724616 
L 72.6209 204.769045 
L 73.008201 203.813473 
L 73.395501 202.857902 
L 73.782801 201.902331 
L 74.170102 200.94676 
L 74.557402 199.991188 
L 74.944702 199.035617 
L 75.332003 198.080046 
L 75.719303 197.124475 
L 76.106603 196.168903 
L 76.493904 195.213332 
L 76.881204 194.257761 
L 77.268505 193.30219 
L 77.655805 192.346618 
L 78.043105 191.391047 
L 78.430406 190.435476 
L 78.817706 189.479905 
L 79.205006 188.524333 
L 79.592307 187.568762 
L 79.979607 186.613191 
L 80.366907 185.65762 
L 80.754208 184.702048 
L 81.141508 183.746477 
L 81.528809 183.008261 
L 81.916109 184.441618 
L 82.303409 185.874975 
L 82.69071 187.308332 
L 83.07801 188.741688 
L 83.46531 190.175045 
L 83.852611 191.608402 
L 84.239911 193.041759 
L 84.627211 194.475116 
L 85.014512 195.908473 
L 85.401812 197.34183 
L 85.789112 198.775187 
L 86.176413 200.208544 
L 86.563713 201.6419 
L 86.951014 203.075257 
L 87.338314 204.508614 
L 87.725614 205.941971 
L 88.112915 207.375328 
L 88.500215 208.808685 
L 88.887515 210.242042 
L 89.274816 211.675399 
L 89.662116 213.108755 
L 90.049416 214.542112 
L 90.436717 215.975469 
L 90.824017 217.408826 
L 91.211317 218.842183 
L 91.598618 220.27554 
L 91.985918 221.708897 
L 92.373219 223.142254 
L 92.760519 224.575611 
L 93.147819 226.008967 
L 93.53512 227.442324 
L 93.92242 228.875681 
L 94.30972 230.309038 
L 94.697021 231.742395 
L 95.084321 233.175752 
L 95.471621 234.609109 
L 95.858922 236.042466 
" style="fill:none;stroke:#ff0000;stroke-linecap:square;stroke-width:2;"/>
   </g>
  </g>
  <g id="axes_4">
   <g id="patch_17">
    <path d="M 245.036 277.18 
L 385.2 277.18 
L 385.2 166.23 
L 245.036 166.23 
z
" style="fill:#ffffff;"/>
   </g>
   <g id="matplotlib.axis_7">
    <g id="xtick_13">
     <g id="line2d_52">
      <g>
       <use style="stroke:#000000;stroke-width:0.8;" x="297.883545" xlink:href="#m762a480618" y="277.18"/>
      </g>
     </g>
     <g id="text_30">
      <!-- 0 -->
      <g transform="translate(294.38417 292.538281)scale(0.11 -0.11)">
       <use xlink:href="#DejaVuSans-30"/>
      </g>
     </g>
    </g>
    <g id="xtick_14">
     <g id="line2d_53">
      <g>
       <use style="stroke:#000000;stroke-width:0.8;" x="358.242575" xlink:href="#m762a480618" y="277.18"/>
      </g>
     </g>
     <g id="text_31">
      <!-- 2 -->
      <g transform="translate(354.7432 292.538281)scale(0.11 -0.11)">
       <use xlink:href="#DejaVuSans-32"/>
      </g>
     </g>
    </g>
    <g id="text_32">
     <!-- $a_k~\mathrm{(m/s^2)}$ -->
     <g transform="translate(288.298 309.290313)scale(0.12 -0.12)">
      <use transform="translate(0 0.765625)" xlink:href="#DejaVuSans-Oblique-61"/>
      <use transform="translate(61.279297 -15.640625)scale(0.7)" xlink:href="#DejaVuSans-Oblique-6b"/>
      <use transform="translate(137.02116 0.765625)" xlink:href="#DejaVuSans-28"/>
      <use transform="translate(176.034832 0.765625)" xlink:href="#DejaVuSans-6d"/>
      <use transform="translate(273.446941 0.765625)" xlink:href="#DejaVuSans-2f"/>
      <use transform="translate(307.138347 0.765625)" xlink:href="#DejaVuSans-73"/>
      <use transform="translate(360.194988 39.046875)scale(0.7)" xlink:href="#DejaVuSans-32"/>
      <use transform="translate(407.465496 0.765625)" xlink:href="#DejaVuSans-29"/>
     </g>
    </g>
   </g>
   <g id="matplotlib.axis_8">
    <g id="ytick_12">
     <g id="line2d_54">
      <g>
       <use style="stroke:#000000;stroke-width:0.8;" x="245.036" xlink:href="#mca0d693472" y="272.136818"/>
      </g>
     </g>
     <g id="text_33">
      <!-- 5 -->
      <g transform="translate(231.03725 276.315959)scale(0.11 -0.11)">
       <use xlink:href="#DejaVuSans-35"/>
      </g>
     </g>
    </g>
    <g id="ytick_13">
     <g id="line2d_55">
      <g>
       <use style="stroke:#000000;stroke-width:0.8;" x="245.036" xlink:href="#mca0d693472" y="238.515541"/>
      </g>
     </g>
     <g id="text_34">
      <!-- 10 -->
      <g transform="translate(224.0385 242.694681)scale(0.11 -0.11)">
       <use xlink:href="#DejaVuSans-31"/>
       <use x="63.623047" xlink:href="#DejaVuSans-30"/>
      </g>
     </g>
    </g>
    <g id="ytick_14">
     <g id="line2d_56">
      <g>
       <use style="stroke:#000000;stroke-width:0.8;" x="245.036" xlink:href="#mca0d693472" y="204.894263"/>
      </g>
     </g>
     <g id="text_35">
      <!-- 15 -->
      <g transform="translate(224.0385 209.073403)scale(0.11 -0.11)">
       <use xlink:href="#DejaVuSans-31"/>
       <use x="63.623047" xlink:href="#DejaVuSans-35"/>
      </g>
     </g>
    </g>
    <g id="ytick_15">
     <g id="line2d_57">
      <g>
       <use style="stroke:#000000;stroke-width:0.8;" x="245.036" xlink:href="#mca0d693472" y="171.272985"/>
      </g>
     </g>
     <g id="text_36">
      <!-- 20 -->
      <g transform="translate(224.0385 175.452126)scale(0.11 -0.11)">
       <use xlink:href="#DejaVuSans-32"/>
       <use x="63.623047" xlink:href="#DejaVuSans-30"/>
      </g>
     </g>
    </g>
    <g id="text_37">
     <!-- $v_k~\mathrm{(m/s)}$ -->
     <g transform="translate(217.542875 245.525)rotate(-90)scale(0.12 -0.12)">
      <use transform="translate(0 0.125)" xlink:href="#DejaVuSans-Oblique-76"/>
      <use transform="translate(59.179688 -16.28125)scale(0.7)" xlink:href="#DejaVuSans-Oblique-6b"/>
      <use transform="translate(134.92155 0.125)" xlink:href="#DejaVuSans-28"/>
      <use transform="translate(173.935222 0.125)" xlink:href="#DejaVuSans-6d"/>
      <use transform="translate(271.347332 0.125)" xlink:href="#DejaVuSans-2f"/>
      <use transform="translate(305.038738 0.125)" xlink:href="#DejaVuSans-73"/>
      <use transform="translate(357.138347 0.125)" xlink:href="#DejaVuSans-29"/>
     </g>
    </g>
   </g>
   <g id="line2d_58">
    <path clip-path="url(#pe370bacb3c)" d="M 302.108677 238.401228 
L 298.487135 238.29364 
L 294.865593 238.347434 
L 291.244051 238.56261 
L 287.622509 238.939169 
L 284.000968 239.477109 
L 280.379426 240.176432 
L 276.757884 241.037136 
L 273.136342 242.059223 
L 269.5148 243.242692 
L 265.893258 244.587543 
L 262.271716 246.093776 
L 256.839404 248.655718 
L 251.407091 251.580769 
L 251.892542 252.617014 
L 255.514083 255.570134 
L 259.135625 258.281182 
L 262.757167 260.750156 
L 266.378709 262.977057 
L 270.000251 264.961885 
L 273.621793 266.70464 
L 277.243335 268.205321 
L 280.864876 269.46393 
L 284.486418 270.480465 
L 288.10796 271.254927 
L 291.729502 271.787315 
L 295.351044 272.077631 
L 299.052705 272.124203 
L 302.674247 271.925017 
L 306.295789 271.483758 
L 309.91733 270.800425 
L 313.538872 269.875019 
L 317.160414 268.70754 
L 320.781956 267.297988 
L 324.403498 265.646362 
L 328.02504 263.752664 
L 331.646582 261.616892 
L 335.268123 259.239047 
L 338.889665 256.619128 
L 342.511207 253.757137 
L 346.132749 250.653072 
L 349.754291 247.306934 
L 353.375833 243.718723 
L 356.997374 239.888439 
L 361.826097 234.404835 
L 366.654819 228.490879 
L 371.483542 222.14657 
L 376.312264 215.371909 
L 378.726626 211.823196 
L 377.258496 210.034914 
L 371.826183 204.910843 
L 366.393871 200.149881 
L 360.961558 195.752029 
L 355.529245 191.717287 
L 350.096932 188.045654 
L 344.66462 184.737132 
L 339.232307 181.791719 
L 333.799994 179.209416 
L 330.178452 177.689608 
L 326.55691 176.331183 
L 322.935368 175.134139 
L 319.313827 174.098478 
L 315.692285 173.224199 
L 312.070743 172.511302 
L 308.449201 171.959787 
L 304.827659 171.569654 
L 301.206117 171.340904 
L 297.584575 171.273535 
L 297.584575 171.273535 
" style="fill:none;stroke:#000000;stroke-linecap:square;stroke-opacity:0.666667;stroke-width:2;"/>
   </g>
   <g id="line2d_59">
    <path clip-path="url(#pe370bacb3c)" d="M 302.108677 238.401228 
L 298.487135 238.29364 
L 294.865593 238.347434 
L 291.244051 238.56261 
L 287.622509 238.939169 
L 284.000968 239.477109 
L 280.379426 240.176432 
L 276.757884 241.037136 
L 273.136342 242.059223 
L 269.5148 243.242692 
L 265.893258 244.587543 
L 262.271716 246.093776 
L 256.839404 248.655718 
L 251.407091 251.580769 
L 251.892542 252.617014 
L 255.514083 255.570134 
L 259.135625 258.281182 
L 262.757167 260.750156 
L 266.378709 262.977057 
L 270.000251 264.961885 
L 273.621793 266.70464 
L 277.243335 268.205321 
L 280.864876 269.46393 
L 284.486418 270.480465 
L 288.10796 271.254927 
L 291.729502 271.787315 
L 295.351044 272.077631 
L 299.132824 272.122415 
L 302.754366 271.917874 
L 306.375908 271.471259 
L 309.99745 270.782571 
L 313.618992 269.851809 
L 317.240533 268.678975 
L 320.862075 267.264067 
L 324.483617 265.607086 
L 328.105159 263.708032 
L 331.726701 261.566905 
L 335.348243 259.183705 
L 338.969785 256.558431 
L 342.591326 253.691084 
L 346.212868 250.581664 
L 349.83441 247.230171 
L 353.455952 243.636604 
L 357.077494 239.800965 
L 361.906216 234.31022 
L 366.734939 228.389123 
L 371.563661 222.037674 
L 376.392384 215.255872 
L 378.806745 211.703589 
L 377.138317 209.917627 
L 371.706004 204.801588 
L 366.273692 200.04866 
L 360.841379 195.658841 
L 355.409066 191.632132 
L 349.976753 187.968532 
L 344.544441 184.668043 
L 339.112128 181.730663 
L 333.679815 179.156393 
L 330.058273 177.641941 
L 326.436731 176.288871 
L 322.815189 175.097183 
L 319.193648 174.066877 
L 315.572106 173.197953 
L 311.950564 172.490411 
L 308.329022 171.944252 
L 304.70748 171.559474 
L 301.085938 171.336079 
L 297.464397 171.274066 
L 297.464397 171.274066 
" style="fill:none;stroke:#000000;stroke-linecap:square;stroke-opacity:0.833333;stroke-width:2;"/>
   </g>
   <g id="line2d_60">
    <path clip-path="url(#pe370bacb3c)" d="M 302.108677 238.401228 
L 298.487135 238.29364 
L 294.865593 238.347434 
L 291.244051 238.56261 
L 287.622509 238.939169 
L 284.000968 239.477109 
L 280.379426 240.176432 
L 276.757884 241.037136 
L 273.136342 242.059223 
L 269.5148 243.242692 
L 265.893258 244.587543 
L 262.271716 246.093776 
L 256.839404 248.655718 
L 251.407091 251.580769 
L 251.892542 252.617014 
L 255.514083 255.570134 
L 259.135625 258.281182 
L 262.757167 260.750156 
L 266.378709 262.977057 
L 270.000251 264.961885 
L 273.621793 266.70464 
L 277.243335 268.205321 
L 280.864876 269.46393 
L 284.486418 270.480465 
L 288.10796 271.254927 
L 291.729502 271.787315 
L 295.351044 272.077631 
L 299.212944 272.120509 
L 302.834485 271.910612 
L 306.456027 271.458641 
L 310.077569 270.764598 
L 313.699111 269.828481 
L 317.320653 268.650291 
L 320.942195 267.230028 
L 324.563737 265.567692 
L 328.185278 263.663283 
L 331.80682 261.5168 
L 335.428362 259.128244 
L 339.049904 256.497615 
L 342.671446 253.624913 
L 346.292988 250.510137 
L 349.914529 247.153289 
L 353.536071 243.554367 
L 357.157613 239.713372 
L 361.986336 234.215487 
L 366.815058 228.287249 
L 371.643781 221.92866 
L 376.472503 215.139718 
L 378.828909 211.583877 
L 373.396596 206.354835 
L 367.964284 201.488903 
L 362.531971 196.98608 
L 357.099658 192.846367 
L 351.667345 189.069764 
L 346.235032 185.656271 
L 340.80272 182.605888 
L 335.370407 179.918615 
L 329.938094 177.594451 
L 326.316552 176.246736 
L 322.69501 175.060404 
L 319.073469 174.035453 
L 315.451927 173.171885 
L 311.830385 172.469698 
L 308.208843 171.928894 
L 304.587301 171.549472 
L 300.965759 171.331432 
L 297.344218 171.274775 
L 297.344218 171.274775 
" style="fill:none;stroke:#000000;stroke-linecap:square;stroke-width:2;"/>
   </g>
   <g id="patch_18">
    <path d="M 245.036 277.18 
L 245.036 166.23 
" style="fill:none;stroke:#000000;stroke-linecap:square;stroke-linejoin:miter;stroke-width:0.8;"/>
   </g>
   <g id="patch_19">
    <path d="M 385.2 277.18 
L 385.2 166.23 
" style="fill:none;stroke:#000000;stroke-linecap:square;stroke-linejoin:miter;stroke-width:0.8;"/>
   </g>
   <g id="patch_20">
    <path d="M 245.036 277.18 
L 385.2 277.18 
" style="fill:none;stroke:#000000;stroke-linecap:square;stroke-linejoin:miter;stroke-width:0.8;"/>
   </g>
   <g id="patch_21">
    <path d="M 245.036 166.23 
L 385.2 166.23 
" style="fill:none;stroke:#000000;stroke-linecap:square;stroke-linejoin:miter;stroke-width:0.8;"/>
   </g>
   <g id="line2d_61">
    <path clip-path="url(#pe370bacb3c)" d="M 302.108677 238.401228 
L 298.487135 238.29364 
L 294.865593 238.347434 
L 291.244051 238.56261 
L 287.622509 238.939169 
L 284.000968 239.477109 
L 280.379426 240.176432 
L 276.757884 241.037136 
L 277.750152 241.499004 
L 281.371694 242.723735 
L 284.993236 243.706393 
L 288.614778 244.446978 
L 292.23632 244.94549 
L 295.857862 245.201928 
L 299.479403 245.216293 
L 303.100945 244.988585 
L 306.722487 244.518804 
L 310.344029 243.80695 
L 313.965571 242.853022 
L 317.587113 241.657022 
L 321.208655 240.218948 
L 324.830196 238.538801 
L 328.451738 236.61658 
L 332.07328 234.452287 
L 335.694822 232.04592 
L 339.316364 229.39748 
L 342.937906 226.506967 
L 346.559447 223.374381 
L 350.180989 219.999721 
L 353.802531 216.382989 
L 357.424073 212.524183 
L 362.252795 207.00255 
L 367.081518 201.050565 
L 365.643931 199.521146 
L 360.211618 195.173422 
L 354.779305 191.188808 
L 349.346992 187.567303 
L 343.914679 184.308909 
L 338.482367 181.413624 
L 333.050054 178.881449 
L 329.428512 177.39506 
L 325.80697 176.070053 
L 322.185428 174.906428 
L 318.563887 173.904185 
L 314.942345 173.063325 
L 311.320803 172.383846 
L 307.699261 171.86575 
L 304.077719 171.509036 
L 300.456177 171.313704 
L 296.834635 171.279754 
L 296.834635 171.279754 
" style="fill:none;stroke:#0000ff;stroke-linecap:square;stroke-width:2;"/>
   </g>
   <g id="line2d_62">
    <path clip-path="url(#pe370bacb3c)" d="M 302.108677 238.401228 
L 298.487135 238.29364 
L 294.865593 238.347434 
L 291.244051 238.56261 
L 287.622509 238.939169 
L 284.000968 239.477109 
L 280.379426 240.176432 
L 276.757884 241.037136 
L 273.136342 242.059223 
L 269.5148 243.242692 
L 265.893258 244.587543 
L 262.271716 246.093776 
L 262.138512 246.897023 
L 265.760053 249.165277 
L 269.381595 251.191457 
L 273.003137 252.975564 
L 276.624679 254.517598 
L 280.246221 255.817559 
L 283.867763 256.875447 
L 287.489305 257.691261 
L 291.110846 258.265002 
L 294.732388 258.59667 
L 298.35393 258.686265 
L 301.975472 258.533787 
L 305.597014 258.139235 
L 309.218556 257.50261 
L 312.840097 256.623912 
L 316.461639 255.503141 
L 320.083181 254.140297 
L 323.704723 252.535379 
L 327.326265 250.688389 
L 330.947807 248.599325 
L 334.569349 246.268187 
L 338.19089 243.694977 
L 341.812432 240.879694 
L 345.433974 237.822337 
L 349.055516 234.522907 
L 352.677058 230.981404 
L 356.2986 227.197827 
L 361.127322 221.7765 
L 365.956045 215.924821 
L 370.784767 209.64279 
L 373.199128 206.340392 
L 371.570411 204.678535 
L 366.138099 199.934669 
L 360.705786 195.553914 
L 355.273473 191.536268 
L 349.84116 187.881732 
L 344.408848 184.590306 
L 338.976535 181.66199 
L 333.544222 179.096783 
L 329.92268 177.588373 
L 326.301138 176.241345 
L 322.679597 175.055699 
L 319.058055 174.031436 
L 315.436513 173.168554 
L 311.814971 172.467055 
L 308.193429 171.926937 
L 304.571887 171.548202 
L 300.950345 171.330849 
L 297.328804 171.274878 
L 297.328804 171.274878 
" style="fill:none;stroke:#0000ff;stroke-linecap:square;stroke-opacity:0.8;stroke-width:2;"/>
   </g>
   <g id="line2d_63">
    <path clip-path="url(#pe370bacb3c)" d="M 302.108677 238.401228 
L 298.487135 238.29364 
L 294.865593 238.347434 
L 291.244051 238.56261 
L 287.622509 238.939169 
L 284.000968 239.477109 
L 280.379426 240.176432 
L 276.757884 241.037136 
L 273.136342 242.059223 
L 269.5148 243.242692 
L 265.893258 244.587543 
L 262.271716 246.093776 
L 256.839404 248.655718 
L 251.407091 251.580769 
L 251.892542 252.617014 
L 255.514083 255.570134 
L 259.135625 258.281182 
L 262.757167 260.750156 
L 266.378709 262.977057 
L 270.000251 264.961885 
L 273.621793 266.70464 
L 277.243335 268.205321 
L 280.864876 269.46393 
L 284.486418 270.480465 
L 288.10796 271.254927 
L 291.729502 271.787315 
L 295.351044 272.077631 
L 298.972586 272.125873 
L 302.594127 271.932042 
L 306.215669 271.496138 
L 309.837211 270.818161 
L 313.458753 269.89811 
L 317.080295 268.735987 
L 320.701837 267.33179 
L 324.323379 265.68552 
L 327.94492 263.797176 
L 331.566462 261.66676 
L 335.188004 259.29427 
L 338.809546 256.679707 
L 342.431088 253.823071 
L 346.05263 250.724362 
L 349.674171 247.383579 
L 353.295713 243.800724 
L 356.917255 239.975795 
L 361.745978 234.499331 
L 366.5747 228.592515 
L 371.403423 222.255347 
L 376.232145 215.487827 
L 378.646506 211.942684 
L 377.378675 210.15238 
L 371.946362 205.020275 
L 366.51405 200.25128 
L 361.081737 195.845395 
L 355.649424 191.80262 
L 350.217111 188.122954 
L 344.784798 184.806398 
L 339.352486 181.852953 
L 333.920173 179.262616 
L 328.48786 177.03539 
L 324.866318 175.7523 
L 321.244776 174.630593 
L 317.623235 173.670267 
L 314.001693 172.871324 
L 310.380151 172.233762 
L 306.758609 171.757583 
L 303.137067 171.442786 
L 299.515525 171.289371 
L 297.704754 171.273182 
L 297.704754 171.273182 
" style="fill:none;stroke:#0000ff;stroke-linecap:square;stroke-opacity:0.6;stroke-width:2;"/>
   </g>
   <g id="line2d_64">
    <path clip-path="url(#pe370bacb3c)" d="M 305.126628 238.367607 
L 306.333809 238.192776 
L 307.54099 237.991049 
L 308.74817 237.762424 
L 309.955351 237.506902 
L 311.162531 237.224483 
L 312.369712 236.915168 
L 313.576893 236.578955 
L 314.784073 236.215845 
L 315.991254 235.825838 
L 317.198434 235.408934 
L 318.405615 234.965134 
L 319.612796 234.494436 
L 320.819976 233.996841 
L 322.027157 233.472349 
L 323.234338 232.92096 
L 324.441518 232.342674 
L 325.648699 231.737491 
L 326.855879 231.105411 
L 328.06306 230.446434 
L 329.270241 229.76056 
L 330.477421 229.047789 
L 331.684602 228.308121 
L 332.891782 227.541555 
L 334.098963 226.748093 
L 335.306144 225.927734 
L 336.513324 225.080478 
L 337.720505 224.206325 
L 338.927686 223.305274 
L 340.134866 222.377327 
L 341.342047 221.422483 
L 342.549227 220.440742 
L 343.756408 219.432103 
L 344.963589 218.396568 
L 346.170769 217.334136 
L 347.37795 216.244806 
L 348.58513 215.12858 
L 349.792311 213.985456 
L 350.999492 212.815436 
L 352.206672 211.618518 
L 353.413853 210.394704 
L 354.621034 209.143992 
L 355.828214 207.866384 
L 357.035395 206.561878 
L 358.242575 205.230476 
L 359.449756 203.872176 
L 360.656937 202.486979 
L 361.864117 201.074886 
L 363.071298 199.635895 
L 364.003892 198.170286 
L 362.193121 196.71724 
L 360.38235 195.30454 
L 358.571579 193.932186 
L 356.760808 192.600177 
L 354.950038 191.308514 
L 353.139267 190.057196 
L 351.328496 188.846224 
L 349.517725 187.675597 
L 347.706954 186.545316 
L 345.896183 185.45538 
L 344.085412 184.40579 
L 342.274641 183.396546 
L 340.46387 182.427647 
L 338.653099 181.499093 
L 336.842328 180.610885 
L 335.031557 179.763023 
L 333.220786 178.955506 
L 331.410016 178.188334 
L 329.599245 177.461509 
L 327.788474 176.775028 
L 325.977703 176.128894 
L 324.166932 175.523104 
L 322.356161 174.957661 
L 320.54539 174.432562 
L 318.734619 173.94781 
L 316.923848 173.503403 
L 315.113077 173.099341 
L 313.302306 172.735625 
L 311.491535 172.412255 
L 309.680764 172.12923 
L 307.869994 171.88655 
L 306.059223 171.684216 
L 304.248452 171.522228 
L 302.437681 171.400585 
L 300.62691 171.319288 
L 298.816139 171.278336 
L 297.005368 171.27773 
" style="fill:none;stroke:#ff0000;stroke-linecap:square;stroke-width:2;"/>
   </g>
   <g id="line2d_65">
    <defs>
     <path d="M -2.5 2.5 
L 2.5 2.5 
L 2.5 -2.5 
L -2.5 -2.5 
z
" id="m7722245285" style="stroke:#ff0000;stroke-linejoin:miter;"/>
    </defs>
    <g clip-path="url(#pe370bacb3c)">
     <use style="fill:#ff0000;stroke:#ff0000;stroke-linejoin:miter;" x="305.126628" xlink:href="#m7722245285" y="238.367607"/>
    </g>
   </g>
   <g id="line2d_66">
    <g clip-path="url(#pe370bacb3c)">
     <use style="fill:#ff0000;stroke:#ff0000;" x="297.005368" xlink:href="#m26f3f2e3e9" y="171.27773"/>
    </g>
   </g>
  </g>
 </g>
 <defs>
  <clipPath id="p3c898b8aaa">
   <rect height="110.95" width="140.164" x="56.18" y="10.8"/>
  </clipPath>
  <clipPath id="pac21676962">
   <rect height="110.95" width="140.164" x="245.036" y="10.8"/>
  </clipPath>
  <clipPath id="pff7fee903b">
   <rect height="110.95" width="140.164" x="56.18" y="166.23"/>
  </clipPath>
  <clipPath id="pe370bacb3c">
   <rect height="110.95" width="140.164" x="245.036" y="166.23"/>
  </clipPath>
 </defs>
</svg>
